<svg width="22" height="13" viewBox="0 0 22 13" fill="none" xmlns="http://www.w3.org/2000/svg">
<path fill-rule="evenodd" clip-rule="evenodd" d="M4.8252 0.00175491C4.55001 0.0246873 4.34552 0.266362 4.36845 0.541551C4.49959 2.11515 3.87767 3.31327 3.02532 4.19061C2.16233 5.07889 1.07527 5.62193 0.35321 5.8441C0.0892792 5.92531 -0.0588455 6.2051 0.0223637 6.46904C0.103573 6.73297 0.383364 6.88109 0.647295 6.79988C1.50202 6.53689 2.74374 5.91554 3.74257 4.88743C4.75203 3.84837 5.52496 2.37808 5.365 0.458505C5.34207 0.183317 5.10039 -0.0211775 4.8252 0.00175491Z" fill="black"/>
<path fill-rule="evenodd" clip-rule="evenodd" d="M4.8252 12.6423C4.55001 12.6193 4.34552 12.3777 4.36845 12.1025C4.49959 10.5289 3.87767 9.33074 3.02532 8.45341C2.16233 7.56512 1.07527 7.02208 0.35321 6.79991C0.0892792 6.7187 -0.0588455 6.43891 0.0223637 6.17498C0.103573 5.91105 0.383364 5.76292 0.647295 5.84413C1.50202 6.10712 2.74374 6.72847 3.74257 7.75659C4.75203 8.79565 5.52496 10.2659 5.365 12.1855C5.34207 12.4607 5.10039 12.6652 4.8252 12.6423Z" fill="black"/>
<path fill-rule="evenodd" clip-rule="evenodd" d="M21.3965 6.32192C21.3965 6.04578 21.1726 5.82192 20.8965 5.82192H0.519608C0.243465 5.82192 0.0196075 6.04578 0.0196075 6.32192C0.0196075 6.59806 0.243465 6.82192 0.519608 6.82192H20.8965C21.1726 6.82192 21.3965 6.59806 21.3965 6.32192Z" fill="black"/>
</svg>
