<svg width="22" height="13" viewBox="0 0 22 13" fill="none" xmlns="http://www.w3.org/2000/svg">
<path fill-rule="evenodd" clip-rule="evenodd" d="M16.5713 0.00175491C16.8465 0.0246873 17.051 0.266362 17.028 0.541551C16.8969 2.11515 17.5188 3.31327 18.3712 4.19061C19.2341 5.07889 20.3212 5.62193 21.0433 5.8441C21.3072 5.92531 21.4553 6.2051 21.3741 6.46904C21.2929 6.73297 21.0131 6.88109 20.7492 6.79988C19.8945 6.53689 18.6527 5.91554 17.6539 4.88743C16.6445 3.84837 15.8715 2.37808 16.0315 0.458505C16.0544 0.183317 16.2961 -0.0211775 16.5713 0.00175491Z" fill="black"/>
<path fill-rule="evenodd" clip-rule="evenodd" d="M16.5713 12.6423C16.8465 12.6193 17.051 12.3777 17.028 12.1025C16.8969 10.5289 17.5188 9.33074 18.3712 8.45341C19.2341 7.56512 20.3212 7.02208 21.0433 6.79991C21.3072 6.7187 21.4553 6.43891 21.3741 6.17498C21.2929 5.91105 21.0131 5.76292 20.7492 5.84413C19.8945 6.10712 18.6527 6.72847 17.6539 7.75659C16.6445 8.79565 15.8715 10.2659 16.0315 12.1855C16.0544 12.4607 16.2961 12.6652 16.5713 12.6423Z" fill="black"/>
<path fill-rule="evenodd" clip-rule="evenodd" d="M0 6.32192C0 6.04578 0.223858 5.82192 0.5 5.82192H20.8769C21.153 5.82192 21.3769 6.04578 21.3769 6.32192C21.3769 6.59806 21.153 6.82192 20.8769 6.82192H0.5C0.223858 6.82192 0 6.59806 0 6.32192Z" fill="black"/>
</svg>
