<svg width="22" height="14" viewBox="0 0 22 14" fill="none" xmlns="http://www.w3.org/2000/svg">
  <path fill-rule="evenodd" clip-rule="evenodd" d="M16.5713 0.679749C16.8465 0.702681 17.051 0.944356 17.028 1.21954C16.8969 2.79314 17.5188 3.99126 18.3712 4.8686C19.2341 5.75689 20.3212 6.29993 21.0433 6.5221C21.3072 6.60331 21.4553 6.8831 21.3741 7.14703C21.2929 7.41096 21.0131 7.55909 20.7492 7.47788C19.8945 7.21488 18.6527 6.59353 17.6539 5.56542C16.6445 4.52636 15.8715 3.05608 16.0315 1.1365C16.0544 0.86131 16.2961 0.656816 16.5713 0.679749Z" fill="currentColor"/>
  <path fill-rule="evenodd" clip-rule="evenodd" d="M16.5713 13.3203C16.8465 13.2973 17.051 13.0556 17.028 12.7805C16.8969 11.2069 17.5188 10.0087 18.3712 9.1314C19.2341 8.24311 20.3212 7.70007 21.0433 7.4779C21.3072 7.39669 21.4553 7.1169 21.3741 6.85297C21.2929 6.58904 21.0131 6.44091 20.7492 6.52212C19.8945 6.78512 18.6527 7.40647 17.6539 8.43458C16.6445 9.47364 15.8715 10.9439 16.0315 12.8635C16.0544 13.1387 16.2961 13.3432 16.5713 13.3203Z" fill="currentColor" />
  <path fill-rule="evenodd" clip-rule="evenodd" d="M0 6.99992C0 6.72377 0.223858 6.49992 0.5 6.49992H20.8769C21.153 6.49992 21.3769 6.72377 21.3769 6.99992C21.3769 7.27606 21.153 7.49992 20.8769 7.49992H0.5C0.223858 7.49992 0 7.27606 0 6.99992Z" fill="currentColor"/>
  </svg>
