<svg width="106" height="52" viewBox="0 0 106 52" fill="none" xmlns="http://www.w3.org/2000/svg">
<path d="M4.5612 19V18.552L6.8852 17.404V2.116L4.5612 0.967999V0.519999H12.7372V0.967999L10.4132 2.116V17.404L12.7372 18.552V19H4.5612ZM14.8175 19V18.552L16.6375 17.656V9.2L14.9015 7.94V7.66L19.3255 6.008H19.6055L19.8575 8.08H19.9975C20.6695 7.408 21.3135 6.89467 21.9295 6.54C22.5642 6.18533 23.2922 6.008 24.1135 6.008C25.0095 6.008 25.7748 6.21333 26.4095 6.624C27.0628 7.016 27.4922 7.604 27.6975 8.388H27.7815C28.5282 7.62267 29.2282 7.03467 29.8815 6.624C30.5535 6.21333 31.3282 6.008 32.2055 6.008C33.2882 6.008 34.1748 6.29733 34.8655 6.876C35.5562 7.45467 35.9015 8.29467 35.9015 9.396V17.656L37.7215 18.552V19H31.0015V18.552L32.6535 17.656V10.6C32.6535 9.89067 32.4482 9.34933 32.0375 8.976C31.6268 8.584 31.0948 8.388 30.4415 8.388C29.9375 8.388 29.4522 8.48133 28.9855 8.668C28.5188 8.836 28.1268 9.07867 27.8095 9.396V17.656L29.4335 18.552V19H22.9935V18.552L24.5615 17.656V10.6C24.5615 9.89067 24.3562 9.34933 23.9455 8.976C23.5348 8.584 23.0028 8.388 22.3495 8.388C21.9388 8.388 21.5002 8.46267 21.0335 8.612C20.5855 8.76133 20.2028 8.96667 19.8855 9.228V17.656L21.4255 18.552V19H14.8175ZM42.1416 19.28C41.2456 19.28 40.4802 19.0093 39.8456 18.468C39.2296 17.9267 38.9309 17.1613 38.9496 16.172C38.9682 15.2013 39.2949 14.408 39.9296 13.792C40.5642 13.1573 41.7402 12.6347 43.4576 12.224L46.0896 11.58V9.732C46.0896 9.04133 45.8562 8.48133 45.3896 8.052C44.9229 7.604 44.3629 7.38 43.7096 7.38C43.0562 7.38 42.5989 7.53867 42.3376 7.856C42.0762 8.15467 41.9456 8.59333 41.9456 9.172V10.264L41.8056 10.376H40.1256C39.8456 10.376 39.6496 10.32 39.5376 10.208C39.4256 10.096 39.3696 9.872 39.3696 9.536C39.3696 8.65867 39.9296 7.884 41.0496 7.212C41.6469 6.83867 42.2349 6.54933 42.8136 6.344C43.4109 6.12 44.0362 6.008 44.6896 6.008C45.5109 6.008 46.2762 6.12 46.9856 6.344C47.6949 6.568 48.2642 6.92267 48.6936 7.408C49.1229 7.89333 49.3376 8.54667 49.3376 9.368V17.012C49.5989 17.3107 50.0749 17.46 50.7656 17.46H51.6896L51.7736 17.544V17.824C51.5496 18.1973 51.2042 18.5333 50.7376 18.832C50.2709 19.1307 49.6736 19.28 48.9456 19.28C48.2362 19.28 47.6576 19.1213 47.2096 18.804C46.7802 18.468 46.4722 18.02 46.2856 17.46H46.0896C45.6042 17.9827 45.0256 18.4213 44.3536 18.776C43.6816 19.112 42.9442 19.28 42.1416 19.28ZM42.0296 15.472C42.0296 16.0693 42.1976 16.5173 42.5336 16.816C42.8882 17.096 43.3736 17.236 43.9896 17.236C44.3442 17.236 44.6802 17.1987 44.9976 17.124C45.3336 17.0493 45.6976 16.928 46.0896 16.76V12.644C44.9322 12.868 44.0642 13.12 43.4856 13.4C42.9069 13.6613 42.5149 13.96 42.3096 14.296C42.1229 14.632 42.0296 15.024 42.0296 15.472ZM58.5209 14.856C57.6623 14.856 56.8689 14.7067 56.1409 14.408C55.8609 14.5573 55.6649 14.744 55.5529 14.968C55.4409 15.1733 55.3849 15.388 55.3849 15.612C55.3849 16.0973 55.5529 16.452 55.8889 16.676C56.2249 16.8813 56.7476 16.984 57.4569 16.984H60.6769C62.0956 16.984 63.1409 17.3013 63.8129 17.936C64.4849 18.552 64.8209 19.4667 64.8209 20.68C64.8209 21.52 64.5316 22.3227 63.9529 23.088C63.3929 23.8533 62.5903 24.4787 61.5449 24.964C60.4996 25.468 59.2583 25.72 57.8209 25.72C56.0103 25.72 54.7129 25.4213 53.9289 24.824C53.1636 24.2267 52.7809 23.48 52.7809 22.584C52.7809 21.8933 52.9489 21.3053 53.2849 20.82L55.1049 19.644V19.532C53.6676 19.1213 52.9489 18.2533 52.9489 16.928C52.9489 16.1253 53.2009 15.472 53.7049 14.968L55.2729 14.1V13.932C54.6756 13.54 54.1996 13.0453 53.8449 12.448C53.4903 11.832 53.3129 11.16 53.3129 10.432C53.3129 9.61067 53.5369 8.864 53.9849 8.192C54.4516 7.52 55.0769 6.99733 55.8609 6.624C56.6449 6.232 57.5316 6.036 58.5209 6.036C58.9876 6.036 59.4636 6.092 59.9489 6.204C60.4343 6.29733 60.8543 6.428 61.2089 6.596L65.4929 6.316V7.94L62.7489 7.744L62.6369 7.828C62.9729 8.14533 63.2343 8.53733 63.4209 9.004C63.6263 9.47067 63.7289 9.94667 63.7289 10.432C63.7289 11.272 63.4956 12.028 63.0289 12.7C62.5809 13.3533 61.9649 13.876 61.1809 14.268C60.3969 14.66 59.5103 14.856 58.5209 14.856ZM58.7729 13.68C59.4076 13.68 59.9023 13.3813 60.2569 12.784C60.6303 12.1867 60.8169 11.4307 60.8169 10.516C60.8169 9.48933 60.5836 8.67733 60.1169 8.08C59.6689 7.48267 59.0996 7.184 58.4089 7.184C57.6996 7.184 57.1583 7.492 56.7849 8.108C56.4303 8.70533 56.2529 9.452 56.2529 10.348C56.2529 11.3747 56.4863 12.1867 56.9529 12.784C57.4196 13.3813 58.0263 13.68 58.7729 13.68ZM54.9929 22.136C54.9929 22.9013 55.2729 23.536 55.8329 24.04C56.3929 24.544 57.1489 24.796 58.1009 24.796C59.3143 24.796 60.2849 24.488 61.0129 23.872C61.7409 23.2747 62.1049 22.5653 62.1049 21.744C62.1049 20.9973 61.8996 20.4747 61.4889 20.176C61.0969 19.8773 60.3876 19.728 59.3609 19.728H56.7009C56.5143 19.728 56.3369 19.7187 56.1689 19.7C55.7583 19.98 55.4596 20.316 55.2729 20.708C55.0863 21.1 54.9929 21.576 54.9929 22.136ZM73.084 19.28C71.2173 19.28 69.7333 18.7293 68.632 17.628C67.5493 16.5267 67.008 15.0613 67.008 13.232C67.008 11.8133 67.3067 10.5627 67.904 9.48C68.5013 8.39733 69.2853 7.548 70.256 6.932C71.2453 6.316 72.3373 6.008 73.532 6.008C75.0253 6.008 76.192 6.52133 77.032 7.548C77.872 8.57467 78.3013 10.0213 78.32 11.888L78.208 12.028H70.144C70.144 12.868 70.2933 13.6427 70.592 14.352C70.8907 15.0427 71.376 15.6027 72.048 16.032C72.72 16.4427 73.6067 16.648 74.708 16.648C75.2307 16.648 75.7907 16.5733 76.388 16.424C76.9853 16.2747 77.6107 16.0227 78.264 15.668H78.348V16.06C77.9 16.9747 77.2187 17.74 76.304 18.356C75.3893 18.972 74.316 19.28 73.084 19.28ZM72.972 7.268C72.2253 7.268 71.6093 7.576 71.124 8.192C70.6387 8.808 70.3307 9.66667 70.2 10.768H75.604C75.436 9.48 75.128 8.57467 74.68 8.052C74.232 7.52933 73.6627 7.268 72.972 7.268ZM80.1459 19V18.552L81.9659 17.656V9.312L80.2299 7.94V7.66L84.6539 6.008H84.9059L85.1579 8.472H85.2979C85.7459 7.76267 86.1472 7.23067 86.5019 6.876C86.8566 6.52133 87.1926 6.288 87.5099 6.176C87.8459 6.064 88.1819 6.008 88.5179 6.008C88.6672 6.008 88.8352 6.036 89.0219 6.092C89.2086 6.148 89.3766 6.204 89.5259 6.26C90.0859 6.44667 90.3659 6.708 90.3659 7.044C90.3659 7.19333 90.3379 7.352 90.2819 7.52L89.6379 9.172H89.4419L88.5739 8.836C88.3126 8.74267 88.0792 8.68667 87.8739 8.668C87.6872 8.63067 87.4726 8.612 87.2299 8.612C86.4459 8.612 85.7646 8.99467 85.1859 9.76V17.656L87.3419 18.552V19H80.1459ZM92.5197 25.748C92.0904 25.748 91.8197 25.6827 91.7077 25.552C91.6144 25.44 91.5677 25.2347 91.5677 24.936V23.228L91.7077 23.088H92.9677C93.4344 23.088 93.8077 23.0507 94.0877 22.976C94.3677 22.9013 94.6197 22.7053 94.8437 22.388C95.0864 22.0707 95.3664 21.5573 95.6837 20.848L96.4957 18.944L91.1197 7.548L89.3277 6.736V6.288H96.6357V6.736L94.6757 7.576V7.688L98.0357 14.828H98.2037L100.864 7.828V7.688L99.0157 6.736V6.288H104.42V6.736L102.404 7.688L96.8317 21.212C96.6637 21.6413 96.5144 21.996 96.3837 22.276C96.2717 22.5747 96.141 22.8547 95.9917 23.116C95.8424 23.396 95.6277 23.732 95.3477 24.124C94.9744 24.6653 94.5264 25.0667 94.0037 25.328C93.481 25.608 92.9864 25.748 92.5197 25.748ZM0.849017 51V50.552L3.17302 49.404V34.116L0.849017 32.968V32.52H9.02502V32.968L6.70102 34.116V49.404L9.02502 50.552V51H0.849017ZM11.1053 51V50.552L12.9253 49.656V41.2L11.1893 39.94V39.66L15.6133 38.008H15.8933L16.1453 40.08H16.2853C16.976 39.408 17.6387 38.8947 18.2733 38.54C18.9267 38.1853 19.664 38.008 20.4853 38.008C21.6053 38.008 22.52 38.2973 23.2293 38.876C23.9573 39.4547 24.3213 40.2947 24.3213 41.396V49.656L26.1413 50.552V51H19.4213V50.552L21.0733 49.656V42.6C21.0733 41.8907 20.8587 41.3493 20.4293 40.976C20 40.584 19.44 40.388 18.7493 40.388C18.32 40.388 17.8627 40.4627 17.3773 40.612C16.892 40.7613 16.4907 40.9667 16.1733 41.228V49.656L17.8253 50.552V51H11.1053ZM32.4004 51.28C31.3924 51.28 30.5431 51.0373 29.8524 50.552C29.1804 50.0667 28.8444 49.3853 28.8444 48.508V39.576H26.7164V39.296L29.2364 38.288L31.7004 35.208H32.0924V38.288H35.9004V39.576H32.0924V47.892C32.0924 48.3587 32.2978 48.7133 32.7084 48.956C33.1191 49.18 33.6138 49.292 34.1924 49.292C34.5471 49.292 34.8644 49.2733 35.1444 49.236C35.4431 49.1987 35.7138 49.152 35.9564 49.096L36.0404 49.124V49.516C35.7791 49.9453 35.3218 50.3467 34.6684 50.72C34.0151 51.0933 33.2591 51.28 32.4004 51.28ZM43.4084 51.28C41.5417 51.28 40.0577 50.7293 38.9564 49.628C37.8737 48.5267 37.3324 47.0613 37.3324 45.232C37.3324 43.8133 37.631 42.5627 38.2284 41.48C38.8257 40.3973 39.6097 39.548 40.5804 38.932C41.5697 38.316 42.6617 38.008 43.8564 38.008C45.3497 38.008 46.5164 38.5213 47.3564 39.548C48.1964 40.5747 48.6257 42.0213 48.6444 43.888L48.5324 44.028H40.4684C40.4684 44.868 40.6177 45.6427 40.9164 46.352C41.215 47.0427 41.7004 47.6027 42.3724 48.032C43.0444 48.4427 43.931 48.648 45.0324 48.648C45.555 48.648 46.115 48.5733 46.7124 48.424C47.3097 48.2747 47.935 48.0227 48.5884 47.668H48.6724V48.06C48.2244 48.9747 47.543 49.74 46.6284 50.356C45.7137 50.972 44.6404 51.28 43.4084 51.28ZM43.2964 39.268C42.5497 39.268 41.9337 39.576 41.4484 40.192C40.963 40.808 40.655 41.6667 40.5244 42.768H45.9284C45.7604 41.48 45.4524 40.5747 45.0044 40.052C44.5564 39.5293 43.987 39.268 43.2964 39.268ZM50.4703 51V50.552L52.2903 49.656V41.312L50.5543 39.94V39.66L54.9783 38.008H55.2303L55.4823 40.472H55.6223C56.0703 39.7627 56.4716 39.2307 56.8263 38.876C57.1809 38.5213 57.5169 38.288 57.8343 38.176C58.1703 38.064 58.5063 38.008 58.8423 38.008C58.9916 38.008 59.1596 38.036 59.3463 38.092C59.5329 38.148 59.7009 38.204 59.8503 38.26C60.4103 38.4467 60.6903 38.708 60.6903 39.044C60.6903 39.1933 60.6623 39.352 60.6063 39.52L59.9623 41.172H59.7663L58.8983 40.836C58.6369 40.7427 58.4036 40.6867 58.1983 40.668C58.0116 40.6307 57.7969 40.612 57.5543 40.612C56.7703 40.612 56.0889 40.9947 55.5103 41.76V49.656L57.6663 50.552V51H50.4703ZM64.8647 35.012C64.3233 35.012 63.8753 34.8347 63.5207 34.48C63.166 34.1067 62.9887 33.6493 62.9887 33.108C62.9887 32.5667 63.166 32.1187 63.5207 31.764C63.8753 31.4093 64.3233 31.232 64.8647 31.232C65.406 31.232 65.854 31.4093 66.2087 31.764C66.582 32.1187 66.7687 32.5667 66.7687 33.108C66.7687 33.6493 66.582 34.1067 66.2087 34.48C65.854 34.8347 65.406 35.012 64.8647 35.012ZM61.5047 51V50.552L63.3247 49.656V41.2L61.5887 39.856V39.548L66.2927 38.008H66.5727V49.656L68.2807 50.552V51H61.5047ZM76.4901 51.28C75.2208 51.28 74.0915 50.9813 73.1021 50.384C72.1315 49.7867 71.3755 48.9933 70.8341 48.004C70.2928 46.996 70.0221 45.876 70.0221 44.644C70.0221 43.412 70.2928 42.3013 70.8341 41.312C71.3755 40.304 72.1315 39.5013 73.1021 38.904C74.0915 38.3067 75.2208 38.008 76.4901 38.008C77.7781 38.008 78.9075 38.3067 79.8781 38.904C80.8488 39.5013 81.6048 40.304 82.1461 41.312C82.6875 42.3013 82.9581 43.412 82.9581 44.644C82.9581 45.876 82.6875 46.996 82.1461 48.004C81.6048 48.9933 80.8488 49.7867 79.8781 50.384C78.9075 50.9813 77.7781 51.28 76.4901 51.28ZM76.8261 49.964C77.4608 49.964 77.9741 49.74 78.3661 49.292C78.7768 48.844 79.0755 48.256 79.2621 47.528C79.4488 46.8 79.5421 46.0253 79.5421 45.204C79.5421 44.196 79.4208 43.244 79.1781 42.348C78.9541 41.4333 78.5995 40.696 78.1141 40.136C77.6288 39.576 76.9941 39.296 76.2101 39.296C75.5755 39.296 75.0528 39.52 74.6421 39.968C74.2315 40.416 73.9235 41.004 73.7181 41.732C73.5315 42.46 73.4381 43.2347 73.4381 44.056C73.4381 45.064 73.5501 46.016 73.7741 46.912C74.0168 47.808 74.3901 48.5453 74.8941 49.124C75.3981 49.684 76.0421 49.964 76.8261 49.964ZM84.6926 51V50.552L86.5126 49.656V41.312L84.7766 39.94V39.66L89.2006 38.008H89.4526L89.7046 40.472H89.8446C90.2926 39.7627 90.694 39.2307 91.0486 38.876C91.4033 38.5213 91.7393 38.288 92.0566 38.176C92.3926 38.064 92.7286 38.008 93.0646 38.008C93.214 38.008 93.382 38.036 93.5686 38.092C93.7553 38.148 93.9233 38.204 94.0726 38.26C94.6326 38.4467 94.9126 38.708 94.9126 39.044C94.9126 39.1933 94.8846 39.352 94.8286 39.52L94.1846 41.172H93.9886L93.1206 40.836C92.8593 40.7427 92.626 40.6867 92.4206 40.668C92.234 40.6307 92.0193 40.612 91.7766 40.612C90.9926 40.612 90.3113 40.9947 89.7326 41.76V49.656L91.8886 50.552V51H84.6926ZM100.459 51.28C99.5443 51.28 98.7603 51.196 98.107 51.028C97.4537 50.86 96.8003 50.6173 96.147 50.3V47.08H96.539L97.491 48.592C98.1443 49.6187 99.0963 50.132 100.347 50.132C101.075 50.132 101.635 49.9827 102.027 49.684C102.419 49.3667 102.615 48.9373 102.615 48.396C102.615 47.9293 102.503 47.5653 102.279 47.304C102.055 47.024 101.7 46.772 101.215 46.548C100.748 46.324 100.151 46.0533 99.423 45.736C98.415 45.3067 97.659 44.8213 97.155 44.28C96.651 43.72 96.399 43.0013 96.399 42.124C96.399 41.3587 96.595 40.668 96.987 40.052C97.3977 39.4173 97.939 38.9227 98.611 38.568C99.3017 38.1947 100.048 38.008 100.851 38.008C101.504 38.008 102.13 38.0827 102.727 38.232C103.324 38.3813 103.922 38.6053 104.519 38.904V42.124H104.099L103.203 40.752C102.55 39.7253 101.766 39.212 100.851 39.212C100.272 39.212 99.7963 39.3613 99.423 39.66C99.0683 39.94 98.891 40.3507 98.891 40.892C98.891 41.4333 99.087 41.8627 99.479 42.18C99.8897 42.4973 100.618 42.8707 101.663 43.3C102.186 43.5427 102.708 43.7947 103.231 44.056C103.754 44.3173 104.183 44.6907 104.519 45.176C104.874 45.6613 105.051 46.3427 105.051 47.22C105.051 48.0787 104.818 48.816 104.351 49.432C103.903 50.0293 103.324 50.4867 102.615 50.804C101.906 51.1213 101.187 51.28 100.459 51.28Z" fill="#121110"/>
</svg>
