<svg width="136" height="18" viewBox="0 0 136 18" fill="none" xmlns="http://www.w3.org/2000/svg">
<path d="M0.257138 13V12.712L1.75114 11.974V2.146L0.257138 1.408V1.12H5.51314V1.408L4.01914 2.146V11.974L5.51314 12.712V13H0.257138ZM6.85048 13V12.712L8.02048 12.136V6.7L6.90448 5.89V5.71L9.74848 4.648H9.92848L10.0905 5.98H10.1805C10.6125 5.548 11.0265 5.218 11.4225 4.99C11.8305 4.762 12.2985 4.648 12.8265 4.648C13.4025 4.648 13.8945 4.78 14.3025 5.044C14.7225 5.296 14.9985 5.674 15.1305 6.178H15.1845C15.6645 5.686 16.1145 5.308 16.5345 5.044C16.9665 4.78 17.4645 4.648 18.0285 4.648C18.7245 4.648 19.2945 4.834 19.7385 5.206C20.1825 5.578 20.4045 6.118 20.4045 6.826V12.136L21.5745 12.712V13H17.2545V12.712L18.3165 12.136V7.6C18.3165 7.144 18.1845 6.796 17.9205 6.556C17.6565 6.304 17.3145 6.178 16.8945 6.178C16.5705 6.178 16.2585 6.238 15.9585 6.358C15.6585 6.466 15.4065 6.622 15.2025 6.826V12.136L16.2465 12.712V13H12.1065V12.712L13.1145 12.136V7.6C13.1145 7.144 12.9825 6.796 12.7185 6.556C12.4545 6.304 12.1125 6.178 11.6925 6.178C11.4285 6.178 11.1465 6.226 10.8465 6.322C10.5585 6.418 10.3125 6.55 10.1085 6.718V12.136L11.0985 12.712V13H6.85048ZM24.416 13.18C23.84 13.18 23.348 13.006 22.94 12.658C22.544 12.31 22.352 11.818 22.364 11.182C22.376 10.558 22.586 10.048 22.994 9.652C23.402 9.244 24.158 8.908 25.262 8.644L26.954 8.23V7.042C26.954 6.598 26.804 6.238 26.504 5.962C26.204 5.674 25.844 5.53 25.424 5.53C25.004 5.53 24.71 5.632 24.542 5.836C24.374 6.028 24.29 6.31 24.29 6.682V7.384L24.2 7.456H23.12C22.94 7.456 22.814 7.42 22.742 7.348C22.67 7.276 22.634 7.132 22.634 6.916C22.634 6.352 22.994 5.854 23.714 5.422C24.098 5.182 24.476 4.996 24.848 4.864C25.232 4.72 25.634 4.648 26.054 4.648C26.582 4.648 27.074 4.72 27.53 4.864C27.986 5.008 28.352 5.236 28.628 5.548C28.904 5.86 29.042 6.28 29.042 6.808V11.722C29.21 11.914 29.516 12.01 29.96 12.01H30.554L30.608 12.064V12.244C30.464 12.484 30.242 12.7 29.942 12.892C29.642 13.084 29.258 13.18 28.79 13.18C28.334 13.18 27.962 13.078 27.674 12.874C27.398 12.658 27.2 12.37 27.08 12.01H26.954C26.642 12.346 26.27 12.628 25.838 12.856C25.406 13.072 24.932 13.18 24.416 13.18ZM24.344 10.732C24.344 11.116 24.452 11.404 24.668 11.596C24.896 11.776 25.208 11.866 25.604 11.866C25.832 11.866 26.048 11.842 26.252 11.794C26.468 11.746 26.702 11.668 26.954 11.56V8.914C26.21 9.058 25.652 9.22 25.28 9.4C24.908 9.568 24.656 9.76 24.524 9.976C24.404 10.192 24.344 10.444 24.344 10.732ZM34.9455 10.336C34.3935 10.336 33.8835 10.24 33.4155 10.048C33.2355 10.144 33.1095 10.264 33.0375 10.408C32.9655 10.54 32.9295 10.678 32.9295 10.822C32.9295 11.134 33.0375 11.362 33.2535 11.506C33.4695 11.638 33.8055 11.704 34.2615 11.704H36.3315C37.2435 11.704 37.9155 11.908 38.3475 12.316C38.7795 12.712 38.9955 13.3 38.9955 14.08C38.9955 14.62 38.8095 15.136 38.4375 15.628C38.0775 16.12 37.5615 16.522 36.8895 16.834C36.2175 17.158 35.4195 17.32 34.4955 17.32C33.3315 17.32 32.4975 17.128 31.9935 16.744C31.5015 16.36 31.2555 15.88 31.2555 15.304C31.2555 14.86 31.3635 14.482 31.5795 14.17L32.7495 13.414V13.342C31.8255 13.078 31.3635 12.52 31.3635 11.668C31.3635 11.152 31.5255 10.732 31.8495 10.408L32.8575 9.85V9.742C32.4735 9.49 32.1675 9.172 31.9395 8.788C31.7115 8.392 31.5975 7.96 31.5975 7.492C31.5975 6.964 31.7415 6.484 32.0295 6.052C32.3295 5.62 32.7315 5.284 33.2355 5.044C33.7395 4.792 34.3095 4.666 34.9455 4.666C35.2455 4.666 35.5515 4.702 35.8635 4.774C36.1755 4.834 36.4455 4.918 36.6735 5.026L39.4275 4.846V5.89L37.6635 5.764L37.5915 5.818C37.8075 6.022 37.9755 6.274 38.0955 6.574C38.2275 6.874 38.2935 7.18 38.2935 7.492C38.2935 8.032 38.1435 8.518 37.8435 8.95C37.5555 9.37 37.1595 9.706 36.6555 9.958C36.1515 10.21 35.5815 10.336 34.9455 10.336ZM35.1075 9.58C35.5155 9.58 35.8335 9.388 36.0615 9.004C36.3015 8.62 36.4215 8.134 36.4215 7.546C36.4215 6.886 36.2715 6.364 35.9715 5.98C35.6835 5.596 35.3175 5.404 34.8735 5.404C34.4175 5.404 34.0695 5.602 33.8295 5.998C33.6015 6.382 33.4875 6.862 33.4875 7.438C33.4875 8.098 33.6375 8.62 33.9375 9.004C34.2375 9.388 34.6275 9.58 35.1075 9.58ZM32.6775 15.016C32.6775 15.508 32.8575 15.916 33.2175 16.24C33.5775 16.564 34.0635 16.726 34.6755 16.726C35.4555 16.726 36.0795 16.528 36.5475 16.132C37.0155 15.748 37.2495 15.292 37.2495 14.764C37.2495 14.284 37.1175 13.948 36.8535 13.756C36.6015 13.564 36.1455 13.468 35.4855 13.468H33.7755C33.6555 13.468 33.5415 13.462 33.4335 13.45C33.1695 13.63 32.9775 13.846 32.8575 14.098C32.7375 14.35 32.6775 14.656 32.6775 15.016ZM44.3075 13.18C43.1075 13.18 42.1535 12.826 41.4455 12.118C40.7495 11.41 40.4015 10.468 40.4015 9.292C40.4015 8.38 40.5935 7.576 40.9775 6.88C41.3615 6.184 41.8655 5.638 42.4895 5.242C43.1255 4.846 43.8275 4.648 44.5955 4.648C45.5555 4.648 46.3055 4.978 46.8455 5.638C47.3855 6.298 47.6615 7.228 47.6735 8.428L47.6015 8.518H42.4175C42.4175 9.058 42.5135 9.556 42.7055 10.012C42.8975 10.456 43.2095 10.816 43.6415 11.092C44.0735 11.356 44.6435 11.488 45.3515 11.488C45.6875 11.488 46.0475 11.44 46.4315 11.344C46.8155 11.248 47.2175 11.086 47.6375 10.858H47.6915V11.11C47.4035 11.698 46.9655 12.19 46.3775 12.586C45.7895 12.982 45.0995 13.18 44.3075 13.18ZM44.2355 5.458C43.7555 5.458 43.3595 5.656 43.0475 6.052C42.7355 6.448 42.5375 7 42.4535 7.708H45.9275C45.8195 6.88 45.6215 6.298 45.3335 5.962C45.0455 5.626 44.6795 5.458 44.2355 5.458ZM48.8473 13V12.712L50.0173 12.136V6.772L48.9013 5.89V5.71L51.7453 4.648H51.9073L52.0693 6.232H52.1593C52.4473 5.776 52.7053 5.434 52.9333 5.206C53.1613 4.978 53.3773 4.828 53.5813 4.756C53.7973 4.684 54.0133 4.648 54.2293 4.648C54.3253 4.648 54.4333 4.666 54.5533 4.702C54.6733 4.738 54.7813 4.774 54.8773 4.81C55.2373 4.93 55.4173 5.098 55.4173 5.314C55.4173 5.41 55.3993 5.512 55.3633 5.62L54.9493 6.682H54.8233L54.2653 6.466C54.0973 6.406 53.9473 6.37 53.8153 6.358C53.6953 6.334 53.5573 6.322 53.4013 6.322C52.8973 6.322 52.4593 6.568 52.0873 7.06V12.136L53.4733 12.712V13H48.8473ZM56.8019 17.338C56.5259 17.338 56.3519 17.296 56.2799 17.212C56.2199 17.14 56.1899 17.008 56.1899 16.816V15.718L56.2799 15.628H57.0899C57.3899 15.628 57.6299 15.604 57.8099 15.556C57.9899 15.508 58.1519 15.382 58.2959 15.178C58.4519 14.974 58.6319 14.644 58.8359 14.188L59.3579 12.964L55.9019 5.638L54.7499 5.116V4.828H59.4479V5.116L58.1879 5.656V5.728L60.3479 10.318H60.4559L62.1659 5.818V5.728L60.9779 5.116V4.828H64.4519V5.116L63.1559 5.728L59.5739 14.422C59.4659 14.698 59.3699 14.926 59.2859 15.106C59.2139 15.298 59.1299 15.478 59.0339 15.646C58.9379 15.826 58.7999 16.042 58.6199 16.294C58.3799 16.642 58.0919 16.9 57.7559 17.068C57.4199 17.248 57.1019 17.338 56.8019 17.338ZM68.6916 13V12.712L70.1856 11.974V2.146L68.6916 1.408V1.12H73.9476V1.408L72.4536 2.146V11.974L73.9476 12.712V13H68.6916ZM75.2849 13V12.712L76.4549 12.136V6.7L75.3389 5.89V5.71L78.1829 4.648H78.3629L78.5249 5.98H78.6149C79.0589 5.548 79.4849 5.218 79.8929 4.99C80.3129 4.762 80.7869 4.648 81.3149 4.648C82.0349 4.648 82.6229 4.834 83.0789 5.206C83.5469 5.578 83.7809 6.118 83.7809 6.826V12.136L84.9509 12.712V13H80.6309V12.712L81.6929 12.136V7.6C81.6929 7.144 81.5549 6.796 81.2789 6.556C81.0029 6.304 80.6429 6.178 80.1989 6.178C79.9229 6.178 79.6289 6.226 79.3169 6.322C79.0049 6.418 78.7469 6.55 78.5429 6.718V12.136L79.6049 12.712V13H75.2849ZM88.9746 13.18C88.3266 13.18 87.7806 13.024 87.3366 12.712C86.9046 12.4 86.6886 11.962 86.6886 11.398V5.656H85.3206V5.476L86.9406 4.828L88.5246 2.848H88.7766V4.828H91.2246V5.656H88.7766V11.002C88.7766 11.302 88.9086 11.53 89.1726 11.686C89.4366 11.83 89.7546 11.902 90.1266 11.902C90.3546 11.902 90.5586 11.89 90.7386 11.866C90.9306 11.842 91.1046 11.812 91.2606 11.776L91.3146 11.794V12.046C91.1466 12.322 90.8526 12.58 90.4326 12.82C90.0126 13.06 89.5266 13.18 88.9746 13.18ZM96.0512 13.18C94.8512 13.18 93.8972 12.826 93.1892 12.118C92.4932 11.41 92.1452 10.468 92.1452 9.292C92.1452 8.38 92.3372 7.576 92.7212 6.88C93.1052 6.184 93.6092 5.638 94.2332 5.242C94.8692 4.846 95.5712 4.648 96.3392 4.648C97.2992 4.648 98.0492 4.978 98.5892 5.638C99.1292 6.298 99.4052 7.228 99.4172 8.428L99.3452 8.518H94.1612C94.1612 9.058 94.2572 9.556 94.4492 10.012C94.6412 10.456 94.9532 10.816 95.3852 11.092C95.8172 11.356 96.3872 11.488 97.0952 11.488C97.4312 11.488 97.7912 11.44 98.1752 11.344C98.5592 11.248 98.9612 11.086 99.3812 10.858H99.4352V11.11C99.1472 11.698 98.7092 12.19 98.1212 12.586C97.5332 12.982 96.8432 13.18 96.0512 13.18ZM95.9792 5.458C95.4992 5.458 95.1032 5.656 94.7912 6.052C94.4792 6.448 94.2812 7 94.1972 7.708H97.6712C97.5632 6.88 97.3652 6.298 97.0772 5.962C96.7892 5.626 96.4232 5.458 95.9792 5.458ZM100.591 13V12.712L101.761 12.136V6.772L100.645 5.89V5.71L103.489 4.648H103.651L103.813 6.232H103.903C104.191 5.776 104.449 5.434 104.677 5.206C104.905 4.978 105.121 4.828 105.325 4.756C105.541 4.684 105.757 4.648 105.973 4.648C106.069 4.648 106.177 4.666 106.297 4.702C106.417 4.738 106.525 4.774 106.621 4.81C106.981 4.93 107.161 5.098 107.161 5.314C107.161 5.41 107.143 5.512 107.107 5.62L106.693 6.682H106.567L106.009 6.466C105.841 6.406 105.691 6.37 105.559 6.358C105.439 6.334 105.301 6.322 105.145 6.322C104.641 6.322 104.203 6.568 103.831 7.06V12.136L105.217 12.712V13H100.591ZM109.845 2.722C109.497 2.722 109.209 2.608 108.981 2.38C108.753 2.14 108.639 1.846 108.639 1.498C108.639 1.15 108.753 0.861999 108.981 0.633999C109.209 0.405999 109.497 0.291999 109.845 0.291999C110.193 0.291999 110.481 0.405999 110.709 0.633999C110.949 0.861999 111.069 1.15 111.069 1.498C111.069 1.846 110.949 2.14 110.709 2.38C110.481 2.608 110.193 2.722 109.845 2.722ZM107.685 13V12.712L108.855 12.136V6.7L107.739 5.836V5.638L110.763 4.648H110.943V12.136L112.041 12.712V13H107.685ZM117.318 13.18C116.502 13.18 115.776 12.988 115.14 12.604C114.516 12.22 114.03 11.71 113.682 11.074C113.334 10.426 113.16 9.706 113.16 8.914C113.16 8.122 113.334 7.408 113.682 6.772C114.03 6.124 114.516 5.608 115.14 5.224C115.776 4.84 116.502 4.648 117.318 4.648C118.146 4.648 118.872 4.84 119.496 5.224C120.12 5.608 120.606 6.124 120.954 6.772C121.302 7.408 121.476 8.122 121.476 8.914C121.476 9.706 121.302 10.426 120.954 11.074C120.606 11.71 120.12 12.22 119.496 12.604C118.872 12.988 118.146 13.18 117.318 13.18ZM117.534 12.334C117.942 12.334 118.272 12.19 118.524 11.902C118.788 11.614 118.98 11.236 119.1 10.768C119.22 10.3 119.28 9.802 119.28 9.274C119.28 8.626 119.202 8.014 119.046 7.438C118.902 6.85 118.674 6.376 118.362 6.016C118.05 5.656 117.642 5.476 117.138 5.476C116.73 5.476 116.394 5.62 116.13 5.908C115.866 6.196 115.668 6.574 115.536 7.042C115.416 7.51 115.356 8.008 115.356 8.536C115.356 9.184 115.428 9.796 115.572 10.372C115.728 10.948 115.968 11.422 116.292 11.794C116.616 12.154 117.03 12.334 117.534 12.334ZM122.591 13V12.712L123.761 12.136V6.772L122.645 5.89V5.71L125.489 4.648H125.651L125.813 6.232H125.903C126.191 5.776 126.449 5.434 126.677 5.206C126.905 4.978 127.121 4.828 127.325 4.756C127.541 4.684 127.757 4.648 127.973 4.648C128.069 4.648 128.177 4.666 128.297 4.702C128.417 4.738 128.525 4.774 128.621 4.81C128.981 4.93 129.161 5.098 129.161 5.314C129.161 5.41 129.143 5.512 129.107 5.62L128.693 6.682H128.567L128.009 6.466C127.841 6.406 127.691 6.37 127.559 6.358C127.439 6.334 127.301 6.322 127.145 6.322C126.641 6.322 126.203 6.568 125.831 7.06V12.136L127.217 12.712V13H122.591ZM132.727 13.18C132.139 13.18 131.635 13.126 131.215 13.018C130.795 12.91 130.375 12.754 129.955 12.55V10.48H130.207L130.819 11.452C131.239 12.112 131.851 12.442 132.655 12.442C133.123 12.442 133.483 12.346 133.735 12.154C133.987 11.95 134.113 11.674 134.113 11.326C134.113 11.026 134.041 10.792 133.897 10.624C133.753 10.444 133.525 10.282 133.213 10.138C132.913 9.994 132.529 9.82 132.061 9.616C131.413 9.34 130.927 9.028 130.603 8.68C130.279 8.32 130.117 7.858 130.117 7.294C130.117 6.802 130.243 6.358 130.495 5.962C130.759 5.554 131.107 5.236 131.539 5.008C131.983 4.768 132.463 4.648 132.979 4.648C133.399 4.648 133.801 4.696 134.185 4.792C134.569 4.888 134.953 5.032 135.337 5.224V7.294H135.067L134.491 6.412C134.071 5.752 133.567 5.422 132.979 5.422C132.607 5.422 132.301 5.518 132.061 5.71C131.833 5.89 131.719 6.154 131.719 6.502C131.719 6.85 131.845 7.126 132.097 7.33C132.361 7.534 132.829 7.774 133.501 8.05C133.837 8.206 134.173 8.368 134.509 8.536C134.845 8.704 135.121 8.944 135.337 9.256C135.565 9.568 135.679 10.006 135.679 10.57C135.679 11.122 135.529 11.596 135.229 11.992C134.941 12.376 134.569 12.67 134.113 12.874C133.657 13.078 133.195 13.18 132.727 13.18Z" fill="#121110"/>
</svg>
