<svg width="150" height="45" viewBox="0 0 150 45" fill="none" xmlns="http://www.w3.org/2000/svg">
<path d="M142.776 30.7541C142.551 30.5304 142.201 30.4309 141.901 30.5055C141.576 30.5801 141.326 30.8287 141.251 31.1519C141.176 31.4751 141.251 31.7983 141.501 32.0221C141.676 32.1961 141.901 32.2956 142.151 32.2956C142.401 32.2956 142.626 32.1961 142.801 32.0221C143.126 31.6989 143.126 31.1271 142.776 30.7541ZM142.726 31.9226C142.576 32.0967 142.376 32.1961 142.151 32.1961C141.926 32.1961 141.726 32.1215 141.551 31.9724C141.401 31.8232 141.326 31.6243 141.326 31.4254C141.326 31.2514 141.401 31.0525 141.501 30.9282C141.651 30.7541 141.876 30.6547 142.101 30.6547C142.326 30.6547 142.551 30.7541 142.701 30.9282C142.976 31.2017 142.976 31.6243 142.726 31.9226ZM27.9453 31.8481C27.9703 31.2265 27.7204 30.6298 27.2705 30.2072C26.8205 29.7845 26.2206 29.5608 25.5957 29.6105C24.3459 29.6105 23.6211 30.3812 23.6211 31.0773C23.5961 31.4006 23.6961 31.7486 23.946 31.9972C24.171 32.2459 24.4959 32.3702 24.8459 32.3702C25.0958 32.395 25.3708 32.2956 25.5457 32.1215C25.7207 31.9475 25.8207 31.674 25.7957 31.4254C25.7957 30.779 25.1208 30.7293 24.9458 30.5304C24.9458 30.3066 25.0458 30.058 25.6457 30.058C26.4956 30.058 27.1955 30.3812 27.1955 31.7238C27.1205 32.6934 26.2956 33.4144 25.3208 33.3895C24.8459 33.3895 23.5461 33.2901 22.9712 33.2901C21.4714 33.2901 19.2718 33.9116 19.2718 36.1989C19.2718 36.9199 19.5717 37.616 20.0967 38.1133C20.6216 38.6105 21.3214 38.884 22.0463 38.884C22.5462 38.9088 23.0212 38.7099 23.3711 38.3867C23.721 38.0387 23.946 37.5912 23.946 37.0939C23.946 36.0249 23.1461 35.8011 22.5212 35.8011C22.2463 35.8011 21.9713 35.9006 21.7714 36.0994C21.5714 36.2983 21.4714 36.5718 21.4964 36.8453C21.4964 37.616 22.1713 37.7901 22.7712 38.0387C22.4713 38.2624 22.1213 38.3867 21.7464 38.3619C20.7965 38.3619 20.0467 37.8149 20.0467 36.4475C20.0467 35.2044 21.1715 34.5083 22.3963 34.5083C24.021 34.5083 25.5957 35.453 25.5957 37.9889C25.5957 40.5249 23.3961 43.1851 19.3718 43.1851C14.9725 43.1851 12.4229 41.0221 12.4229 38.8591C12.3979 38.0138 12.8979 37.268 13.6727 36.9448C14.3726 37.442 15.1975 37.7403 16.0473 37.7901C16.2973 37.8398 16.5472 37.7652 16.7222 37.5912C16.8972 37.442 17.0222 37.1934 17.0222 36.9448C17.0222 36.3978 16.4973 36 15.6224 36C15.0225 36.0497 14.4226 36.174 13.8477 36.4227C13.4478 36.0249 13.2478 35.4779 13.3228 34.9309C13.3228 33.2403 14.3726 32.1713 15.7974 32.1713C16.9972 32.1713 17.6221 32.7431 18.3719 33.8867L18.7219 33.7127C18.297 32.1215 16.9972 31.0028 14.9725 31.0028C13.1228 31.0028 11.6981 32.5939 11.6981 33.9613C11.6481 35.0801 12.248 36.1492 13.2228 36.721C12.048 37.3674 10.8732 38.0884 10.8732 39.953C10.8732 42.7624 13.8477 44.9503 17.4971 44.9503C23.971 44.9503 26.3456 40.7735 26.3456 38.163C26.3456 35.9751 25.4708 35.1796 24.296 34.6575C26.5956 34.5829 27.9203 33.5635 27.9453 31.8481ZM3.79937 24.0912C3.79937 28.0193 0.449925 26.7017 0.449925 27.8702C0.449925 28.2928 0.574904 28.4669 0.924846 28.4669C2.14964 28.3177 3.39943 28.268 4.62423 28.3177C6.89885 28.3177 10.0733 28.4669 10.6232 28.4669C11.0232 28.4669 11.3231 28.3425 11.3231 28.1436C11.3231 26.9006 7.2238 27.7956 7.2238 25.0856V15.2155C7.2238 14.7928 7.2238 14.5442 7.74871 14.5442H23.6711C24.196 14.5442 24.021 14.8923 24.021 15.5387V25.0608C24.021 27.5718 20.9965 27 20.9965 27.9696C20.9965 28.5912 21.6464 28.4917 22.0213 28.4917C22.8712 28.4917 24.046 28.3425 26.7955 28.3425C28.3453 28.3425 29.6701 28.4917 30.8449 28.4917C31.1448 28.4917 31.3198 28.1436 31.3198 28.0193C31.3198 27.0249 27.3954 27.7459 27.3954 24.837V3.77901C27.3954 1.0442 30.27 1.69061 30.27 0.994475C30.27 0.745856 30.17 0.372928 29.0702 0.372928C28.1953 0.372928 27.5704 0.522099 25.9707 0.522099C25.1208 0.522099 22.9212 0.372928 21.4964 0.372928C20.8465 0.372928 20.7715 0.571823 20.7715 0.79558C20.7715 1.71547 23.996 1.0442 23.996 3.77901V11.9337C23.996 12.0829 24.071 13.0773 23.6461 13.0773H7.84869C7.1988 13.0773 7.1988 12.9282 7.1988 12.3564V3.77901C7.1988 0.79558 10.2983 1.5663 10.2983 0.770718C10.2983 0.621547 10.1983 0.348066 9.44843 0.348066C8.12365 0.348066 6.77387 0.497238 5.44909 0.497238C3.84936 0.497238 2.29962 0.348066 0.699883 0.348066C0.349942 0.348066 0 0.422652 0 0.770718C0 1.64088 3.69938 0.845304 3.77437 3.75414L3.79937 24.0912ZM47.817 0C38.9935 0 32.0197 5.99171 32.0197 14.2459C32.0197 22.5 37.7687 28.7403 47.0922 28.7403C56.4156 28.7403 63.3644 22.9972 63.3644 14.0718C63.3894 5.84254 56.6156 0 47.817 0ZM48.8919 27.547C40.3683 27.547 35.1441 20.4365 35.1441 13.1022C35.1441 6.83702 39.2935 1.31768 46.5173 1.31768C54.9159 1.31768 60.215 8.32873 60.215 15.5635C60.24 22.9227 55.1908 27.547 48.8919 27.547ZM96.134 5.12155C95.984 0.422652 99.4084 2.0884 99.4084 0.845304C99.4084 0.596685 99.2335 0.39779 98.9835 0.372928C98.2836 0.372928 97.9087 0.522099 96.9089 0.522099C96.6839 0.522099 95.3091 0.372928 94.8842 0.372928C94.3593 0.323204 94.0093 1.29282 93.7594 1.71547L83.4861 20.6851C82.7862 22.0028 82.3613 22.8232 82.1613 22.8232C81.8614 22.8232 81.6864 22.4751 81.2115 21.6298L70.9632 1.46685C70.7382 1.0442 70.6632 0.348066 70.0633 0.348066C69.2885 0.348066 68.5136 0.497238 67.7387 0.497238C66.9638 0.497238 66.139 0.348066 65.3641 0.348066C64.9642 0.348066 64.6392 0.422652 64.6392 0.770718C64.6392 2.11326 68.7385 -0.0994479 68.7385 9.22376C68.7385 13.4254 68.2136 17.6271 67.7137 24.116C67.4138 28.2431 64.6642 26.6271 64.6642 27.9696C64.6642 28.2431 64.7892 28.442 65.0891 28.442C65.864 28.442 66.5889 28.2928 68.8635 28.2928C70.1633 28.2928 72.088 28.442 72.6629 28.442C73.2378 28.442 73.7377 28.3923 73.7377 28.0193C73.7377 26.6022 69.6384 28.3425 69.8634 23.0718L70.3883 9.14917C70.4383 8.72652 70.5632 8.55249 70.6882 8.55249C70.9382 8.57735 71.1381 8.72652 71.2131 8.97514L80.3866 26.6768C80.5116 26.9503 80.8115 27.8204 81.2615 27.8204C81.7114 27.8204 82.3863 26.2044 82.5862 25.8315L91.5098 9.09945C91.9347 8.25414 92.3596 7.90608 92.6346 7.90608C92.9095 7.90608 93.1345 8.4779 93.1345 9.44751L93.5594 24.8619C93.6094 27.7956 90.8849 26.9503 90.8849 28.1188C90.8849 28.268 90.9598 28.4669 91.3598 28.4669C92.4346 28.4669 93.8094 28.3177 95.1591 28.3177C96.8839 28.3177 98.3836 28.4669 99.2085 28.4669C99.6834 28.4669 100.233 28.4669 100.233 28.0442C100.233 26.6519 97.0588 28.1188 96.8339 24.7873L96.134 5.12155ZM110.507 4.52486C110.507 1.86464 110.407 2.01381 114.931 2.01381C116.806 2.01381 121.705 1.76519 122.93 3.1326C123.679 4.05249 122.93 5.94199 124.054 5.94199C124.329 5.94199 125.004 5.61878 125.004 1.21823C125.004 0.745856 124.904 0.348066 124.529 0.348066C123.079 0.348066 118.73 0.497238 117.805 0.497238C115.831 0.497238 113.381 0.348066 104.483 0.348066C103.108 0.348066 102.833 0.497238 102.833 0.820442C102.833 1.29282 103.858 1.3674 104.233 1.44199C106.782 1.76519 106.782 3.6547 106.782 5.44475V23.5442C106.782 25.4088 106.682 26.5276 105.457 27C103.958 27.6464 103.483 27.547 103.383 28.0442C103.383 28.3674 103.658 28.4669 104.083 28.4669C105.957 28.4669 107.932 28.3425 109.832 28.3177C113.406 28.2431 116.981 28.4669 120.555 28.4669C122.63 28.4669 122.98 28.5414 124.479 27.1243C125.604 26.0801 126.829 24.7127 126.829 23.2707C126.829 23.1961 126.779 22.7983 126.454 22.7983C125.854 22.7983 126.229 26.9006 114.056 26.8757C110.107 26.8757 110.482 25.9309 110.482 23.5691V16.2597C110.482 15.663 110.332 15.0166 111.331 15.0166H118.305C122.255 15.0166 120.655 18.4972 122.13 18.4972C122.28 18.5221 122.405 18.4724 122.53 18.3729C122.63 18.2735 122.68 18.1243 122.655 17.9751C122.655 16.9061 122.555 15.8867 122.555 14.8425C122.555 13.5994 122.655 12.232 122.655 10.8398C122.655 10.5166 122.505 10.0939 122.13 10.0939C121.005 10.0939 122.28 13.2762 117.38 13.2762H112.306C110.432 13.2762 110.507 13.2762 110.507 11.9337V4.52486ZM130.403 26.5525C130.578 27.2735 134.478 28.7403 137.677 28.7403C147.45 28.7403 150 23.7431 150 20.4116C150 9.47237 132.503 13.8232 132.503 6.36464C132.503 2.70994 136.127 1.19337 139.527 1.19337C143.326 1.19337 146.451 2.9337 147.75 6.36464C147.875 6.71271 148.175 7.55801 148.65 7.55801C149.125 7.55801 149.175 7.28453 149.125 6.96133L148.475 1.54144C148.425 1.11878 148.225 0.994475 147.95 0.994475C147.525 0.994475 147.425 1.41713 147.05 1.41713C146.451 1.44199 145.026 0 139.827 0C134.628 0 130.278 2.4116 130.278 7.45856C130.278 17.8011 147.775 13.5249 147.775 21.2072C147.775 25.384 143.776 27.4724 139.677 27.4724C133.728 27.4724 131.153 23.3453 130.628 21.5304C130.403 20.6851 130.403 20.2127 129.778 20.2127C129.353 20.2127 129.128 20.6354 129.303 21.4558L130.403 26.5525ZM42.068 37.0193C41.868 37.0193 41.5431 36.9696 41.5431 37.2431C41.5431 37.7652 43.5677 37.3177 43.5677 38.3122V41.5691C43.5677 43.3591 40.8432 44.3039 38.7435 44.3039C34.2693 44.3039 31.8947 40.7486 31.8947 37.0442C31.8947 33.5884 33.9943 30.3812 38.1686 30.3812C43.6427 30.3812 44.6926 34.4337 45.2925 34.4337C45.5174 34.4337 45.5424 34.2348 45.5424 34.0608L45.3175 31.3011C45.2925 31.1271 45.3924 30.8287 45.0675 30.8287C44.8175 30.8287 44.7175 31.2017 44.4676 31.2017C43.8177 31.2017 42.6429 29.7845 38.6436 29.7845C33.7194 29.7845 29.945 32.9171 29.945 37.4669C29.945 42.0166 33.1195 45 38.2686 45C42.3929 45 43.0178 43.5829 45.4174 42.8867V38.6105C45.4174 37.1934 46.5922 37.6906 46.5922 37.2431C46.5922 36.9696 46.1423 37.0442 45.9673 37.0442L42.068 37.0193ZM62.2896 43.6575C61.8397 42.9116 61.4398 42.116 61.1398 41.2956L56.3906 30.6796C56.3156 30.5055 56.1656 29.9088 55.9157 29.9088C55.6657 29.9088 55.5407 30.232 54.191 32.8177L48.7419 43.3343C48.142 44.5028 47.0672 44.1547 47.0672 44.5773C47.0672 44.6271 47.0922 44.7017 47.1171 44.7265C47.1671 44.7762 47.2171 44.8011 47.2671 44.8011C47.867 44.8011 48.4669 44.7265 49.0918 44.7265C49.7167 44.7265 50.3666 44.8011 51.0165 44.8011C51.3165 44.8011 51.6414 44.8508 51.6414 44.5028C51.6414 43.9558 50.0167 44.5773 50.0167 43.1354C50.0167 42.8867 50.0667 42.6381 50.1666 42.4144L51.6164 39.5304C51.8414 39.1077 52.2663 39.1077 52.6912 39.1077H57.7154C58.3403 39.1077 58.4903 39.4061 58.7152 39.8785L59.4401 41.5691C59.6651 42.116 60.14 43.0856 60.14 43.5331C60.14 44.3039 58.7652 44.105 58.7652 44.6022C58.7652 44.8011 59.1401 44.8011 59.2651 44.8011C59.89 44.8011 60.4899 44.7265 61.1148 44.7265C62.0397 44.7265 62.9895 44.8011 63.9143 44.8011C64.0643 44.8011 64.2393 44.8011 64.2393 44.6022C64.2893 44.1547 62.9645 44.6022 62.2896 43.6575ZM57.3904 38.2376H52.8662C52.5662 38.2376 52.4163 38.163 52.5662 37.8646L55.1408 32.8674C55.2908 32.6188 55.3908 32.6188 55.5158 32.8674L57.7404 37.8398C57.8654 38.0635 57.8904 38.2127 57.3904 38.2376ZM77.6621 42.5884L73.8627 37.3674C75.4624 36.7956 76.7372 35.4033 76.7372 33.7873C76.7372 29.8094 71.7131 30.2072 71.3381 30.2072C70.1633 30.2072 68.8635 30.2818 67.5387 30.2818C67.0388 30.2818 66.5639 30.2569 66.089 30.2072C65.814 30.2072 65.6391 30.3315 65.6391 30.4558C65.6391 31.1519 67.6137 30.3066 67.6137 32.2956V42.7873C67.6137 44.3536 65.939 44.0552 65.939 44.5773C65.939 44.6271 65.964 44.7017 66.014 44.7265C66.064 44.7762 66.114 44.8011 66.164 44.8011C67.0388 44.8011 67.8887 44.7265 68.7635 44.7265C70.6632 44.7265 71.1881 44.8011 71.3881 44.8011C71.5881 44.8011 71.788 44.8508 71.788 44.6271C71.788 43.9309 69.4134 44.5525 69.4134 42.7873V38.4365C69.4134 38.2376 69.2635 37.8646 70.0133 37.8646C72.5629 37.8646 72.238 37.7901 73.0378 38.9586L75.5374 42.5635C76.4123 43.732 77.2871 44.8011 78.9618 44.8011C79.1618 44.8011 80.4366 44.8011 80.4366 44.5525C80.4116 44.105 79.3118 44.8757 77.6621 42.5884ZM71.838 37.2182C70.7632 37.2182 69.3634 37.3177 69.3634 36.9199V31.6492C69.3634 30.8536 69.8384 30.8785 70.6632 30.8785C72.8879 30.8785 75.0125 31.7238 75.0125 34.2348C75.0125 36.7459 72.8129 37.2182 71.838 37.2182ZM89.0352 30.232C87.0605 30.232 85.5857 30.3066 84.086 30.3066C83.4111 30.3066 82.7362 30.232 82.0363 30.232C81.8864 30.232 81.7114 30.3066 81.7114 30.4309C81.7114 30.9779 83.5861 30.3315 83.5861 32.4448V42.7127C83.5861 44.6768 81.9613 44.1547 81.9613 44.6271C81.9613 44.7514 82.0113 44.826 82.1863 44.826C82.3613 44.826 84.5359 44.7514 84.7359 44.7514C85.9107 44.7514 87.0605 44.826 88.2353 44.826C94.5592 44.826 97.0338 41.5442 97.0338 36.7956C97.0588 32.9917 93.0845 30.232 89.0352 30.232ZM89.0352 44.279C88.0103 44.279 86.2856 44.0304 85.5107 43.3591C85.3108 43.1851 85.3608 42.1906 85.3608 41.8425V32.047C85.3608 31.0773 85.4608 30.7541 87.6104 30.7541C91.9347 30.7541 95.3341 33.3646 95.3341 37.9641C95.3591 42.7127 92.2846 44.279 89.0352 44.279ZM102.383 32.395C102.383 31.0028 102.333 31.1022 104.533 31.1022C105.457 31.1022 107.832 30.9779 108.407 31.674C108.782 32.1464 108.407 33.1409 108.957 33.1409C109.107 33.1409 109.407 32.9669 109.407 30.6796C109.407 30.4309 109.357 30.232 109.182 30.232C108.482 30.232 106.382 30.3066 105.907 30.3066C104.958 30.3066 103.758 30.232 99.4584 30.232C98.8085 30.232 98.6586 30.3066 98.6586 30.4807C98.6586 30.7293 99.1585 30.779 99.3335 30.8039C100.558 30.9779 100.558 31.9724 100.558 32.8923V42.2901C100.558 43.2597 100.508 43.8315 99.9084 44.0801C99.1835 44.4033 98.9585 44.3785 98.9085 44.6271C98.9085 44.8011 99.0585 44.826 99.2585 44.826C100.183 44.826 101.133 44.7762 102.033 44.7514C103.758 44.7017 105.507 44.826 107.232 44.826C108.232 44.826 108.432 44.8757 109.157 44.1298C109.707 43.5829 110.307 42.8867 110.307 42.116C110.307 42.0663 110.282 41.8674 110.132 41.8674C109.832 41.8674 109.357 43.9807 104.083 43.9807C102.158 43.9807 102.358 43.4834 102.358 42.2652V38.4613C102.358 38.163 102.283 37.7901 102.783 37.7901H106.157C108.082 37.7901 107.307 39.605 108.007 39.605C108.157 39.605 108.257 39.5304 108.257 39.3315C108.257 38.7845 108.207 38.2376 108.207 37.7155C108.207 37.0442 108.257 36.3481 108.257 35.6271C108.257 35.453 108.182 35.2293 108.007 35.2293C107.457 35.2293 108.082 36.895 105.707 36.895H103.233C102.308 36.895 102.358 36.895 102.358 36.1989L102.383 32.395ZM114.506 41.9171C114.506 44.8011 112.506 43.9061 112.506 44.6271C112.506 44.7265 112.531 44.8508 112.806 44.8508C112.956 44.8508 114.156 44.7762 114.956 44.7762C116.081 44.7762 116.706 44.8508 117.255 44.8508C117.48 44.8508 117.505 44.6768 117.505 44.5773C117.505 44.0304 115.506 44.7514 115.506 42.8867V34.4337C115.506 34.0111 115.581 33.9613 115.656 33.9613C115.806 33.9613 116.081 34.3094 116.131 34.3591L125.929 44.3536C126.404 44.826 126.629 44.9254 126.804 44.9254C126.954 44.9254 127.004 44.6271 127.004 44.0304V32.0718C127.004 30.5552 128.354 30.9282 128.354 30.4061C128.354 30.2818 128.254 30.2072 128.129 30.2072C127.579 30.2072 126.604 30.2818 125.829 30.2818C125.054 30.2818 124.429 30.2072 123.729 30.2072C123.579 30.2072 123.479 30.2818 123.479 30.4061C123.479 31.0773 126.004 30.3066 126.004 33.0166V41.6436C126.004 41.8177 125.979 41.8674 125.929 41.8674C125.879 41.8674 125.779 41.7928 125.654 41.6436L114.756 30.6796C114.606 30.5304 114.406 30.2072 114.156 30.2072C113.806 30.2072 113.456 30.2818 113.106 30.2818C112.756 30.2818 112.406 30.2072 112.031 30.2072C111.906 30.2072 111.681 30.2818 111.681 30.4061C111.681 31.1768 114.431 29.9834 114.431 34.2597L114.506 41.9171ZM130.778 43.8563C130.878 44.2293 132.953 45 134.628 45C139.802 45 141.151 42.3895 141.151 40.674C141.151 34.9807 131.903 37.2431 131.903 33.3646C131.903 31.4751 133.828 30.6796 135.627 30.6796C137.627 30.6796 139.302 31.5746 139.977 33.3646C140.052 33.5635 140.202 33.9862 140.452 33.9862C140.702 33.9862 140.727 33.837 140.702 33.6878L140.352 30.8785C140.327 30.6547 140.202 30.5801 140.077 30.5801C139.852 30.5801 139.802 30.8039 139.602 30.8039C139.277 30.8039 138.527 30.058 135.777 30.058C133.028 30.058 130.703 31.3011 130.703 33.9365C130.703 39.3315 139.977 37.0939 139.977 41.0718C139.977 43.2348 137.852 44.3287 135.677 44.3287C132.528 44.3287 131.153 42.1906 130.878 41.2459C130.753 40.8232 130.753 40.5746 130.453 40.5746C130.228 40.5746 130.103 40.7983 130.203 41.221L130.778 43.8563ZM142.301 31.4503C142.351 31.4254 142.401 31.3757 142.451 31.326C142.476 31.2762 142.501 31.2265 142.501 31.1519C142.501 31.0773 142.476 31.0028 142.426 30.9779C142.351 30.9282 142.276 30.9033 142.176 30.9033H141.826V31.8978H142.001V31.4751H142.151L142.451 31.8978H142.651L142.301 31.4503ZM142.026 31.3757H141.976V31.0276H142.051C142.126 31.0276 142.176 31.0276 142.226 31.0773C142.276 31.1022 142.301 31.1519 142.276 31.2017C142.276 31.2514 142.251 31.326 142.201 31.3508C142.176 31.3508 142.101 31.3757 142.026 31.3757Z" fill="#121110"/>
</svg>
