<svg width="173" height="45" viewBox="0 0 173 45" fill="none" xmlns="http://www.w3.org/2000/svg">
<path fill-rule="evenodd" clip-rule="evenodd" d="M51.4308 44.9997C46.3922 44.9997 41.5729 42.1639 38.4532 38.2914C34.8978 33.889 33.1655 28.1996 33.1655 22.5737C33.1655 16.9477 34.7566 11.7282 38.0473 7.41854C41.2919 3.18731 46.1737 0.161854 51.6019 0.161854C56.5937 0.161854 61.3811 3.03044 64.4546 6.85381C67.9951 11.2576 69.7579 16.962 69.7579 22.5893C69.7579 28.2167 68.1506 33.4177 64.8754 37.7273C61.6635 41.9258 56.8115 44.999 51.4308 44.999V44.9997ZM0.800537 1.08668H15.9774V1.52377H12.2496L23.5737 32.6797L33.135 1.52449H29.3759V1.08739H37.5647V1.52449H33.9454L20.4696 44.5911L4.79453 1.52449H0.800537V1.08739V1.08668ZM102.982 0.334411V15.3013H102.638C101.999 12.355 101.094 9.48709 99.5191 6.88589C97.6478 3.84546 94.6686 0.42996 90.7846 0.42996C81.8627 0.42996 81.0522 16.4935 81.0522 22.6214C81.0522 28.1076 81.4887 33.7642 83.4694 38.9046C84.8575 42.5098 86.8694 44.2795 90.5979 44.2795C93.5608 44.2795 96.7124 42.775 98.2872 40.1881C98.6931 39.5142 98.7243 38.7627 98.7243 37.9954V26.4277H94.8254V25.9742H109.097V26.4277H105.759V43.7298H105.465C104.622 42.3194 103.295 41.3945 101.596 41.3945C100.363 41.3945 99.1622 41.8338 98.0877 42.4292L97.1205 42.9618C94.9361 43.9337 92.8455 44.6375 90.4283 44.6375C79.3547 44.6375 73.4588 32.7738 73.4588 22.933C73.4588 15.7391 76.1889 8.04388 81.9911 3.54598C84.5956 1.52377 87.7465 0.0356445 91.0997 0.0356445C92.4104 0.0356445 93.7041 0.442795 94.9212 0.929093L95.8111 1.27421C96.8253 1.6507 97.933 2.01007 99.0231 2.01007C100.381 2.01007 101.598 1.11662 102.642 0.333698H102.983L102.982 0.334411ZM107.24 1.08668H122.463V1.5252H118.424V34.7347C118.424 39.9364 123.758 43.103 128.42 43.103C133.443 43.103 137.669 39.5934 137.669 34.4366V1.52449H132.898V1.08596H172.188V16.4914H171.891C171.439 12.417 170.658 8.23213 167.866 5.05051C165.044 1.83752 161.206 1.52449 157.26 1.52449H153.003V21.3351C153.874 21.4285 154.764 21.4912 155.655 21.4912C161.004 21.4912 162.393 17.7927 162.626 13.2163H163.016V30.5962H162.626C161.955 26.4441 160.131 21.9925 155.28 21.9925C154.516 21.9925 153.767 22.0396 153.004 22.1023V43.2905H159.382C162.69 43.2905 165.98 41.8488 168.32 39.5299C170.316 37.5555 171.706 34.9857 172.189 32.2112C172.453 30.6596 172.579 29.0774 172.656 27.5094H173V43.7298H142.288V43.2905H145.861V1.52449H138.311V34.5621C138.311 41.3938 131.853 44.4186 125.802 44.4186C118.955 44.4186 111.404 41.0808 111.404 33.213V1.52449H107.241V1.08739H107.24V1.08668Z" fill="black"/>
<path fill-rule="evenodd" clip-rule="evenodd" d="M62.0525 22.5731C62.0525 16.351 59.8376 0.803711 51.4621 0.803711C43.0867 0.803711 40.8711 16.3346 40.8711 22.5731C40.8711 28.8115 43.0711 44.3567 51.4621 44.3567C59.8376 44.3559 62.0525 28.7951 62.0525 22.5731Z" fill="#EFEEEE"/>
</svg>
