<svg width="142" height="47" viewBox="0 0 142 47" fill="none" xmlns="http://www.w3.org/2000/svg">
<path d="M32.2612 25.0549L34.7386 23.7647V4.15655H32.8654L28.2912 10.2666H27.7776L28.0677 3.39583H47.8993L48.1894 10.2727H47.6395L43.1559 4.16263H41.2283V23.716L43.7179 25.0427V25.7061H32.2612V25.0549ZM50.1169 24.1907V2.4708L48.1894 1.69183V1.29017L55.1383 0H55.8997V10.3092L56.0628 10.1449C57.7245 8.72083 59.8334 7.92969 62.0208 7.91752C65.0662 7.91752 66.4077 9.65195 66.4077 12.8713V24.1846L68.0331 25.0792V25.7H58.9451V25.0792L60.5766 24.1846V12.8348C60.5766 11.0577 59.8032 10.3518 58.365 10.3518C57.4949 10.3335 56.6429 10.6135 55.9601 11.149V24.2212L57.5614 25.1158V25.7061H48.4734V25.1158L50.1169 24.1907ZM72.9759 17.5208C73.1632 21.1114 74.7645 23.8864 78.5471 23.8864C80.378 23.8864 81.6772 23.0344 82.8797 22.3833V23.0892C81.2421 25.1036 78.7828 26.2538 76.1966 26.2234C70.3293 26.2234 67.3382 22.9371 67.3382 17.253C67.3382 11.5689 70.6193 8.23398 75.9126 8.23398C80.8977 8.23398 83.4839 10.7413 83.4839 17.3504V17.5208H72.9759ZM72.8792 16.687L78.0517 16.3706C78.0517 11.9219 77.2963 8.97035 75.7797 8.97035C74.1603 8.97643 72.8792 12.4088 72.8792 16.687ZM0 34.4026C0 24.9514 6.21174 21.586 13.1305 21.586C16.0671 21.586 18.8346 22.0729 20.3876 22.7058L20.5205 29.3027H19.8619L15.8013 22.9188C14.9855 22.5902 14.1094 22.4502 13.2271 22.4989C9.54723 22.4989 7.668 26.7832 7.72843 33.8001C7.79489 42.1923 9.24511 46.0141 12.6229 46.0141C13.3117 46.0385 14.0006 45.9228 14.6471 45.6733V36.6786L12.4174 35.4006V34.6338H23.1853V35.4371L20.9918 36.6725V45.5455C18.3814 46.4766 15.626 46.9513 12.8525 46.9391C4.99115 46.9452 0 43.2755 0 34.4026ZM22.1883 29.9904V29.4427L29.4091 28.1586L30.2067 28.2256V42.6C30.2067 44.3345 31.0346 44.8639 32.4243 44.8639C33.3368 44.8761 34.2009 44.4683 34.7749 43.7502V30.8546L32.7929 29.9843V29.4244L40.0138 28.1404L40.7389 28.2073V44.6996L42.6906 45.5212V46.0445L35.6088 46.9209L34.8837 46.8539V44.6874H34.6843C33.228 46.1176 31.2883 46.9391 29.258 46.9878C25.7836 46.9878 24.1944 44.9248 24.1944 41.7906V30.8546L22.1883 29.9904ZM67.586 28.1282L68.1842 28.1951V33.5323H68.3473C69.1208 29.6496 70.8248 28.1951 72.9094 28.1951C73.2116 28.183 73.5137 28.2256 73.7977 28.329V33.7331C73.3083 33.6297 72.8067 33.5871 72.3112 33.5992C70.9577 33.5627 69.6102 33.8366 68.3715 34.3904V44.9126L70.0211 45.8315V46.5557H60.631V45.8376L62.3229 44.9126V30.5503L60.3409 29.9539V29.467L67.586 28.1282ZM85.7559 28.5785V22.9675L83.774 22.2676V21.8234L91.0854 20.4724L91.7803 20.5758V44.6753L93.7986 45.4116V46.0324L86.5777 47L86.0157 46.9331V44.9491H85.8526C84.6018 46.2819 82.8555 47.0183 81.0367 46.9817C77.0969 46.9817 74.2207 43.9511 74.2207 37.768C74.2207 31.238 77.5622 28.0247 82.6259 28.0247C83.6894 27.97 84.7649 28.1586 85.7559 28.5785ZM85.7559 44.0119V29.5827C85.2 29.108 84.4809 28.8828 83.7558 28.9558C81.798 29.0228 80.5895 31.9987 80.5895 37.2994C80.5895 42.0645 81.4536 44.73 84.064 44.6387C84.6864 44.6448 85.2846 44.4197 85.7559 44.0119ZM101.714 28.1282L102.343 28.1951V44.9126L103.992 45.8315V46.5557H94.6022V45.8376L96.2881 44.9126V30.8181L94.2699 30.0148V29.4549L101.714 28.1282ZM102.373 23.6065C102.319 25.3409 100.886 26.7041 99.1643 26.6737C98.0283 26.7163 96.9588 26.1321 96.3787 25.1523C95.7986 24.1725 95.7986 22.9432 96.3787 21.9634C96.9588 20.9836 98.0283 20.3993 99.1643 20.4419C100.911 20.4176 102.349 21.8295 102.373 23.5882V23.6065ZM123.461 44.9126V30.6659L121.479 29.9661V29.2784L128.7 27.9274L129.425 27.9943V30.1304H129.625C131.341 28.6516 133.522 27.8361 135.782 27.83C138.924 27.83 140.314 29.3271 140.314 32.6803V44.8883L142 45.8559V46.5618H132.598V45.8437L134.284 44.9187V32.9785C134.284 31.1467 133.486 30.4103 132 30.4103C131.105 30.386 130.235 30.6659 129.522 31.2076V44.9126L131.178 45.8315V46.5618H121.782V45.8437L123.461 44.9126ZM113.243 35.9605V33.5688C113.243 29.9722 112.464 28.7915 110.252 28.7915C110.005 28.7976 109.751 28.822 109.503 28.8585L105.569 34.2261H105.014V29.2784C107.141 28.542 109.37 28.1525 111.618 28.1221C116.434 28.1221 119.22 29.467 119.22 33.5262V45.1682L120.942 45.6246V46.0811C119.848 46.647 118.627 46.927 117.395 46.9026C115.02 46.9026 113.884 46.1176 113.364 44.8091H113.195C112.186 46.1845 110.76 46.9696 108.512 46.9696C105.654 46.9696 103.696 45.1682 103.696 42.0645C103.696 38.9608 105.551 37.4211 109.322 36.6969L113.243 35.9605ZM113.243 44.0119V36.8125L112.041 36.9099C110.156 37.0742 109.473 38.2853 109.473 40.9691C109.473 43.878 110.434 44.6327 111.745 44.6327C112.313 44.6874 112.875 44.4562 113.243 44.0119ZM52.2741 35.9605V33.5688C52.2741 29.9722 51.4946 28.7915 49.2831 28.7915C49.0353 28.7976 48.7815 28.822 48.5338 28.8585L44.6001 34.22H44.0502V29.2784C46.1772 28.542 48.4009 28.1525 50.6487 28.1221C55.4646 28.1221 58.2502 29.467 58.2502 33.5262V45.1682L59.9723 45.6246V46.0811C58.8786 46.647 57.658 46.927 56.4254 46.9026C54.0506 46.9026 52.9146 46.1176 52.395 44.8091H52.2318C51.2227 46.1845 49.7967 46.9696 47.5489 46.9696C44.6907 46.9696 42.7329 45.1682 42.7329 42.0645C42.7329 38.9608 44.588 37.4211 48.3586 36.6969L52.2741 35.9605ZM52.2741 44.0119V36.8125L51.0717 36.9099C49.1864 37.0742 48.5036 38.2853 48.5036 40.9691C48.5036 43.878 49.4643 44.6327 50.7756 44.6327C51.3436 44.6874 51.9055 44.4562 52.2741 44.0119Z" fill="#121212"/>
</svg>
