<svg width="233" height="46" viewBox="0 0 233 46" fill="none" xmlns="http://www.w3.org/2000/svg">
<path d="M0 45.4477H17.9798V44.5403C12.4267 44.3431 11.7665 42.5678 11.7665 39.4511V7.37736C11.7665 4.30017 12.4267 2.48542 17.9798 2.28816V1.42024H0V2.28816C5.55317 2.48542 6.21333 4.37907 6.21333 7.37736V39.3722C6.21333 42.4889 5.55317 44.2642 0 44.4614V45.4477ZM26.096 46C29.5522 46 32.1928 44.2642 34.251 41.9365V45.6844L42.7555 45.3688V44.5798C39.377 44.5009 39.0275 43.6724 39.0275 41.9365V0L29.7852 0.315609V1.18353C34.1345 1.30189 34.1345 2.20926 34.1345 4.81304V14.2419C32.5812 13.0583 30.8725 12.3482 27.9212 12.3482C20.3098 12.3482 15.1062 19.6467 15.1062 29.5094C15.145 38.6226 18.8342 46 26.096 46ZM28.426 43.4357C22.9893 43.4357 20.5817 37.4786 20.5817 29.47C20.5817 19.8439 23.067 13.5712 27.9988 13.5712C31.0278 13.5712 32.5812 14.9914 34.0957 17.319V40.2401C32.7753 42.0549 31.1055 43.4357 28.426 43.4357ZM53.5512 46C59.4538 46 62.0557 42.0154 64.2303 37.5969L63.5702 37.0446C61.0848 40.9108 59.5315 43.2384 55.7258 43.2384C49.396 43.2384 46.5612 36.8079 46.5612 28.8388V28.7599C46.5612 28.1286 46.5612 26.3139 46.6388 25.6432H64.0362C64.5022 17.8714 61.2402 12.2693 53.5512 12.2693C46.833 12.2693 41.1245 19.765 41.1245 29.4305C41.0468 38.8199 45.9398 46 53.5512 46ZM53.124 13.5712C57.1238 13.5712 59.0267 16.8851 58.483 24.5386H46.6C47.066 16.4511 50.2892 13.5712 53.124 13.5712ZM72.8125 45.8816C76.2687 45.8816 79.0258 43.4751 81.3947 40.319H81.6277C81.8218 44.2247 82.8315 45.8816 85.8605 45.7633C87.0643 45.6844 87.9187 45.4082 88.6565 44.8559V43.5146C86.2877 44.6192 86.3653 42.1732 86.3653 38.6621V22.2899C86.3653 15.4648 82.9092 12.4666 76.7735 12.4666C71.1427 12.4666 66.638 15.6621 66.638 19.765C66.638 21.8559 67.6477 23.5129 69.5893 23.5129C71.531 23.5129 72.7348 21.8559 72.7348 19.765C72.7348 18.4631 72.0747 17.2007 71.2203 16.0961C72.23 14.6364 74.2882 13.7684 76.4628 13.7684C80.152 13.7684 81.55 16.6089 81.55 22.1715V24.6964C80.6568 25.5643 72.696 26.5901 69.2398 29.8645C66.7545 31.837 65.7837 35.6244 65.7837 38.4648C65.6283 42.2521 67.8418 45.8816 72.8125 45.8816ZM75.6473 43.1201C72.3465 43.1201 70.9873 40.5557 70.9873 37.1629C70.9873 32.5077 72.7348 28.4048 81.3558 26.0772V38.5832C80.1132 40.7136 77.9773 43.1201 75.6473 43.1201ZM89.3555 45.4477H101.122V44.5798C97.6658 44.5009 97.394 44.1458 97.394 41.7393V0L88.1517 0.315609V1.18353C92.501 1.30189 92.501 2.20926 92.501 4.81304V41.7787C92.501 44.1852 92.035 44.5403 89.3555 44.6192V45.4477ZM106.597 45.4477H123.878V44.5403C118.325 44.3431 118.247 42.765 118.247 39.53V23.2762H134.985V39.4511C134.985 42.6861 134.985 44.3036 129.431 44.4614V45.3688H146.635V44.4614C141.392 44.2642 140.615 42.5678 140.615 39.4511V7.29846C140.615 4.22127 141.47 2.44597 146.635 2.28816V1.42024H129.431V2.28816C134.907 2.48542 134.985 4.14237 134.985 7.29846V21.777H118.247V7.29846C118.247 4.10292 118.247 2.44597 123.878 2.28816V1.42024H106.597V2.28816C111.84 2.48542 112.617 4.61578 112.617 7.61407V39.7667C112.617 42.8834 111.762 44.3036 106.597 44.5009V45.4477ZM155.799 46C162.634 46 168.77 38.8988 168.77 28.9571C168.77 19.0154 162.867 12.2693 155.799 12.2693C148.732 12.2693 142.751 19.3705 142.751 29.2727C142.751 39.175 148.615 46 155.799 46ZM156.032 44.6981C151.333 44.6981 148.382 40.7925 148.382 29.0755C148.382 17.3585 150.867 13.5712 155.489 13.5712C160.11 13.5712 163.139 17.4374 163.139 29.0755C163.178 40.7925 160.615 44.6981 156.032 44.6981ZM183.992 45.4477H195.836V44.5798C192.38 44.5009 192.109 44.1458 192.109 41.7393V21.5798C193.934 17.5952 196.497 15.5832 198.865 15.5832C202.438 15.5832 203.215 18.5815 203.215 24.223V41.7787C203.215 44.1852 203.409 44.5403 200.38 44.6192V45.4871H211.836V44.6192C208.38 44.5403 208.108 44.1852 208.108 41.7787V22.0926C208.108 15.7015 205.467 12.5455 201.234 12.5455C197.545 12.5455 194.516 15.1887 191.953 19.9228C191.409 15.0309 188.885 12.5455 185.196 12.5455C181.196 12.5455 178.556 15.307 175.915 20.7513V12.7033L167.41 13.0189V13.8868C170.789 13.9657 171.139 15.3465 171.139 17.5163V41.8182C171.139 44.2247 170.828 44.5798 167.41 44.6587V45.5266H178.827V44.6587C175.876 44.5798 176.031 44.2247 176.031 41.8182V22.6055C177.662 18.3842 179.876 15.5437 182.788 15.5437C186.361 15.5437 187.138 18.542 187.138 24.1835V41.7393C187.138 44.1458 186.944 44.5009 183.953 44.5798V45.4871H183.992V45.4477ZM222.321 46C228.223 46 230.786 42.0154 233 37.5969L232.34 37.0446C229.854 40.9108 227.757 43.2384 223.952 43.2384C217.622 43.2384 215.603 36.8079 215.603 28.8388V28.7599C215.603 28.1286 215.603 26.3139 215.68 25.6432H232.806C233.272 17.8714 230.01 12.2693 222.321 12.2693C215.564 12.2693 210.127 19.765 210.127 29.4305C210.127 39.0961 214.787 46 222.321 46ZM221.971 13.5712C225.971 13.5712 227.874 16.8851 227.33 24.5386H215.68C216.224 16.4511 218.942 13.5712 221.971 13.5712Z" fill="#121110"/>
</svg>
