<svg width="151" height="36" viewBox="0 0 151 36" fill="none" xmlns="http://www.w3.org/2000/svg">
<path d="M40.109 4.9896C36.2088 1.39709 32.1576 0.648649 27.3013 0.648649H18.5699V35.0021H27.3013C31.5789 35.0021 36.1082 34.4532 40.2851 30.4366C43.7072 27.1684 45.5944 22.7027 45.5944 17.8628C45.6196 12.8732 43.6569 8.28274 40.109 4.9896ZM43.3298 17.8628C43.3298 21.9543 41.7194 25.8212 38.8005 28.7152C35.9068 31.5593 32.4848 32.7817 27.3516 32.7817H20.8597V2.86902H27.3516C32.3589 2.86902 35.5797 3.94179 38.4734 6.53638C41.5936 9.40541 43.3298 13.447 43.3298 17.8628ZM140.381 18.4865C141.187 18.3867 142.042 18.1622 143.174 17.6133C146.269 16.1414 148.031 13.1726 148.031 9.43035C148.031 6.46154 146.773 3.99168 144.282 2.14553C142.243 0.623701 139.853 0.648649 137.06 0.648649H129.738V35.0021H132.027V18.5364H137.614C137.966 19.0353 149.188 35.2765 149.188 35.2765L151 33.8295L140.381 18.4865ZM145.766 9.33056C145.766 12.1746 144.508 14.42 142.218 15.6424C140.885 16.341 139.148 16.341 137.588 16.316H132.053V2.86902H137.286C139.148 2.86902 141.438 2.84407 142.948 3.91684C144.76 5.18919 145.766 7.11019 145.766 9.33056ZM47.1293 0.573805V35.0769H63.3843V32.6819H49.5701V18.2869H63.032V15.8919H49.5701V2.94387H63.3843V0.573805H47.1293ZM91.7424 30.8108C88.9997 32.632 85.7034 33.7297 82.8852 33.7297C79.0605 33.7297 74.7325 31.8836 71.5872 28.9148C68.5929 26.0707 66.8819 22.1788 66.8819 18.2121C66.8819 9.62994 74.2041 2.37006 82.8852 2.37006C86.4331 2.37006 89.9055 3.61746 92.6734 5.91268L93.0508 6.23701L94.787 4.76507L94.2586 4.31601C91.1636 1.64657 87.037 0.12474 82.9607 0.12474C78.1043 0.12474 73.5247 1.99584 70.0272 5.38877C66.5044 8.80665 64.5669 13.3222 64.5669 18.1123C64.5669 27.7921 72.9712 35.9751 82.9103 35.9751C86.5337 35.9751 90.0565 34.8773 93.1515 32.7817L93.6547 32.4324L92.1953 30.5114L91.7424 30.8108ZM110.01 0C100.121 0 91.7675 8.28274 91.7675 18.0873C91.7675 22.8274 93.6799 27.3181 97.1775 30.736C100.65 34.1289 105.204 36 110.01 36C114.816 36 119.371 34.1289 122.843 30.736C126.341 27.3181 128.253 22.8274 128.253 18.0873C128.253 8.28274 119.899 0 110.01 0ZM98.7879 29.1143C95.7684 26.1455 94.1077 22.2287 94.1077 18.0873C94.1077 9.5052 101.38 2.24532 110.01 2.24532C118.641 2.24532 125.963 9.5052 125.963 18.0873C125.963 26.6694 118.666 33.7048 110.01 33.7048C105.808 33.7297 101.807 32.0832 98.7879 29.1143ZM11.927 28.6154V28.8898H11.9773C14.8962 28.8898 15.9278 30.3368 15.9278 31.7089V32.3077H8.12748V32.0832C8.12748 31.0852 9.1843 30.4865 10.9708 30.4865H11.0212V30.2121H4.83119V30.4865H4.88152C6.34094 30.4865 7.82553 30.9854 7.82553 32.0832V32.3077H0.30195V31.5343C0.30195 30.3368 1.28329 28.9148 4.026 28.9148H4.07632V28.6403H0.0251625V35.0021H0.327112V33.9543H15.953V35.0021H16.255V28.6154H11.927ZM11.9018 19.0104V19.3098H11.9522C14.4936 19.3597 15.9278 20.3576 15.9278 22.0291V22.7526H0.30195V21.5551H0V25.6216H0.30195V24.4241H15.9278V25.6216H16.2298V19.0104H11.9018ZM11.9018 9.62994V9.92931H11.9522C14.4936 9.97921 15.9278 10.9771 15.9278 12.6486V13.3721H0.30195V12.1746H0V16.2412H0.30195V15.0437H15.9278V16.2412H16.2298V9.62994H11.9018ZM16.1795 0.648649H11.927V0.923077H11.9773C14.8962 0.923077 15.9278 2.37006 15.9278 3.7422V4.34096H8.12748V4.11642C8.12748 3.1185 9.1843 2.51975 10.9708 2.51975H11.0212V2.24532H4.83119V2.51975H4.88152C6.34094 2.51975 7.82553 3.01871 7.82553 4.11642V4.34096H0.30195V3.56757C0.30195 2.37006 1.28329 0.948025 4.026 0.948025H4.07632V0.673597H0.0251625V7.03534H0.327112V5.98753H15.953V7.03534H16.255V0.648649C16.2298 0.648649 16.1795 0.648649 16.1795 0.648649ZM132.707 33.7796C132.707 33.3306 133.084 32.9563 133.537 32.9563C133.99 32.9563 134.368 33.3306 134.368 33.7796C134.368 34.2287 133.99 34.6029 133.537 34.6029C133.084 34.6029 132.707 34.2287 132.707 33.7796ZM134.267 33.7796C134.267 33.3805 133.94 33.0561 133.562 33.0561C133.16 33.0561 132.833 33.3805 132.833 33.7796C132.833 34.1788 133.16 34.5031 133.562 34.5031C133.94 34.5031 134.267 34.1788 134.267 33.7796ZM133.94 34.2287H133.814L133.562 33.8046H133.336V34.2287H133.235V33.3306H133.638C133.864 33.3306 133.965 33.4304 133.965 33.58C133.965 33.7547 133.839 33.8295 133.688 33.8295L133.94 34.2287ZM133.512 33.7297C133.638 33.7297 133.839 33.7547 133.839 33.58C133.839 33.4553 133.713 33.4553 133.588 33.4553H133.336V33.7297H133.512Z" fill="#121110"/>
</svg>
