<svg width="40" height="40" viewBox="0 0 40 40" fill="none" xmlns="http://www.w3.org/2000/svg">
<path d="M13.9301 33.6033C11.9534 31.82 11.3768 28.0767 12.2001 25.3633C13.6268 27.0733 15.6051 27.6167 17.6534 27.9217C20.8151 28.3933 23.9201 28.2167 26.8568 26.7917C27.1934 26.6283 27.5034 26.41 27.8701 26.1917C28.1468 26.98 28.2184 27.775 28.1218 28.5867C27.8884 30.5617 26.8918 32.0867 25.3085 33.2433C24.6751 33.705 24.0051 34.1183 23.3501 34.555C21.3418 35.895 20.7984 37.4667 21.5534 39.7533L21.6268 40C20.6658 39.5876 19.8494 38.8983 19.2818 38.02C18.6912 37.1216 18.3761 36.0701 18.3751 34.995C18.3684 34.4617 18.3685 33.925 18.2951 33.3983C18.1185 32.1167 17.5084 31.5433 16.3601 31.51C15.1818 31.4767 14.2484 32.195 14.0018 33.3267C13.9818 33.415 13.9551 33.5 13.9268 33.6017H13.9301V33.6033ZM3.99512 26.195C3.99512 26.195 9.39512 23.57 14.8118 23.57L18.8968 10.9617C19.0501 10.3517 19.4968 9.93833 20.0001 9.93833C20.5034 9.93833 20.9501 10.3517 21.1034 10.9617L25.1868 23.57C31.6034 23.57 36.0051 26.195 36.0051 26.195L26.8134 1.21167C26.5501 0.475 26.1051 0 25.5051 0H14.4951C13.8951 0 13.4701 0.475 13.1884 1.21167L3.99512 26.195Z" fill="black"/>
</svg>
