<svg width="40" height="40" viewBox="0 0 40 40" fill="none" xmlns="http://www.w3.org/2000/svg">
<g clip-path="url(#clip0_4_40)">
<path d="M18.3067 23.06C18.0861 23.06 17.8745 22.9724 17.7183 22.8167L16.4767 21.5783C16.397 21.5016 16.3334 21.4097 16.2896 21.3081C16.2457 21.2065 16.2226 21.0972 16.2215 20.9865C16.2204 20.8759 16.2413 20.7661 16.2831 20.6637C16.3248 20.5612 16.3866 20.4681 16.4647 20.3897C16.5428 20.3114 16.6358 20.2494 16.7381 20.2073C16.8405 20.1653 16.9502 20.144 17.0608 20.1448C17.1715 20.1456 17.2808 20.1685 17.3826 20.212C17.4843 20.2555 17.5763 20.3189 17.6533 20.3983L18.3067 21.05L20.275 19.0833C20.4313 18.9269 20.6433 18.8389 20.8644 18.8387C21.0855 18.8385 21.2977 18.9262 21.4542 19.0825C21.6106 19.2388 21.6986 19.4508 21.6988 19.6719C21.699 19.893 21.6113 20.1052 21.455 20.2617L18.8967 22.8167C18.7397 22.9722 18.5277 23.0597 18.3067 23.06ZM33.895 22.815L36.4517 20.2617C36.6035 20.1045 36.6875 19.894 36.6856 19.6755C36.6837 19.457 36.596 19.248 36.4415 19.0935C36.287 18.939 36.078 18.8513 35.8595 18.8494C35.641 18.8475 35.4305 18.9315 35.2733 19.0833L33.305 21.05L32.6517 20.3983C32.5747 20.3189 32.4826 20.2555 32.3809 20.212C32.2792 20.1685 32.1698 20.1456 32.0592 20.1448C31.9485 20.144 31.8388 20.1653 31.7365 20.2073C31.6341 20.2494 31.5412 20.3114 31.463 20.3897C31.3849 20.4681 31.3232 20.5612 31.2814 20.6637C31.2396 20.7661 31.2187 20.8759 31.2198 20.9865C31.2209 21.0972 31.2441 21.2065 31.2879 21.3081C31.3317 21.4097 31.3953 21.5016 31.475 21.5783L32.7183 22.8167C32.7955 22.8943 32.8872 22.9558 32.9882 22.9978C33.0893 23.0397 33.1976 23.0612 33.307 23.0611C33.4164 23.0609 33.5247 23.0391 33.6256 22.9969C33.7265 22.9546 33.8181 22.8928 33.895 22.815ZM7.545 12.42L11.8067 9.77833C12.0473 9.62945 12.246 9.42177 12.3842 9.17484C12.5223 8.92792 12.5953 8.64988 12.5964 8.36694C12.5974 8.084 12.5263 7.80546 12.3899 7.55756C12.2535 7.30967 12.0562 7.10058 11.8167 6.95L7.555 4.26667C7.30286 4.10784 7.01276 4.01951 6.71489 4.01089C6.41702 4.00227 6.12229 4.07367 5.86139 4.21765C5.60049 4.36163 5.38296 4.57292 5.23146 4.82953C5.07996 5.08614 5.00003 5.37867 5 5.67667V11.0033C5.00049 11.3002 5.08016 11.5915 5.23079 11.8472C5.38142 12.103 5.59756 12.3139 5.8569 12.4583C6.11625 12.6026 6.40941 12.6752 6.70615 12.6685C7.00289 12.6617 7.29246 12.576 7.545 12.42ZM10.9283 8.36L6.66667 11.0033V5.67667L10.9283 8.36ZM40 20.8333C40 24.05 37.3833 26.6667 34.1667 26.6667C32.7654 26.664 31.4119 26.1574 30.3532 25.2395C29.2944 24.3215 28.6012 23.0534 28.4 21.6667H24.9333C24.7321 23.0534 24.0389 24.3215 22.9802 25.2395C21.9215 26.1574 20.5679 26.664 19.1667 26.6667C17.7653 26.6643 16.4116 26.1579 15.3528 25.2399C14.294 24.3219 13.6009 23.0535 13.4 21.6667H12.47C10.85 21.6667 9.38667 21.0017 8.33333 19.93V28.3333C8.33333 31.09 10.5767 33.3333 13.3333 33.3333H13.4C13.8067 30.5117 16.2333 28.3333 19.1667 28.3333C22.3833 28.3333 25 30.95 25 34.1667C25 37.3833 22.3833 40 19.1667 40C17.7653 39.9977 16.4116 39.4912 15.3528 38.5732C14.294 37.6552 13.6009 36.3869 13.4 35H13.3333C9.65667 35 6.66667 32.01 6.66667 28.3333V16.4983C4.78582 16.1119 3.09575 15.0887 1.88135 13.6014C0.666949 12.114 0.00249525 10.2535 0 8.33333C0 3.73833 3.73833 0 8.33333 0C12.9283 0 16.6667 3.73833 16.6667 8.33333C16.6637 10.5284 15.7956 12.6339 14.2507 14.1933C12.7057 15.7526 10.6083 16.6401 8.41333 16.6633C8.59859 17.6032 9.1043 18.4496 9.84413 19.0581C10.584 19.6667 11.5121 19.9996 12.47 20H13.4C13.8067 17.1783 16.2333 15 19.1667 15C20.568 15.0023 21.9217 15.5088 22.9805 16.4268C24.0393 17.3448 24.7325 18.6131 24.9333 20H28.4C28.6012 18.6133 29.2944 17.3452 30.3532 16.4272C31.4119 15.5092 32.7654 15.0027 34.1667 15C37.3833 15 40 17.6167 40 20.8333ZM15 34.1667C15 36.4633 16.87 38.3333 19.1667 38.3333C21.4633 38.3333 23.3333 36.4633 23.3333 34.1667C23.3333 31.87 21.4633 30 19.1667 30C16.87 30 15 31.87 15 34.1667ZM8.33333 15C12.01 15 15 12.01 15 8.33333C15 4.65667 12.01 1.66667 8.33333 1.66667C4.65667 1.66667 1.66667 4.65667 1.66667 8.33333C1.66667 12.01 4.65667 15 8.33333 15ZM23.3333 20.8333C23.3333 18.5367 21.4633 16.6667 19.1667 16.6667C16.87 16.6667 15 18.5367 15 20.8333C15 23.13 16.87 25 19.1667 25C21.4633 25 23.3333 23.13 23.3333 20.8333ZM38.3333 20.8333C38.3333 18.5367 36.4633 16.6667 34.1667 16.6667C31.87 16.6667 30 18.5367 30 20.8333C30 23.13 31.87 25 34.1667 25C36.4633 25 38.3333 23.13 38.3333 20.8333ZM16.6667 34.1667C16.6667 34.3877 16.7545 34.5996 16.9107 34.7559C17.067 34.9122 17.279 35 17.5 35C17.721 35 17.933 34.9122 18.0893 34.7559C18.2455 34.5996 18.3333 34.3877 18.3333 34.1667C18.3333 33.9457 18.2455 33.7337 18.0893 33.5774C17.933 33.4211 17.721 33.3333 17.5 33.3333C17.279 33.3333 17.067 33.4211 16.9107 33.5774C16.7545 33.7337 16.6667 33.9457 16.6667 34.1667ZM20 34.1667C20 34.3877 20.0878 34.5996 20.2441 34.7559C20.4004 34.9122 20.6123 35 20.8333 35C21.0543 35 21.2663 34.9122 21.4226 34.7559C21.5789 34.5996 21.6667 34.3877 21.6667 34.1667C21.6667 33.9457 21.5789 33.7337 21.4226 33.5774C21.2663 33.4211 21.0543 33.3333 20.8333 33.3333C20.6123 33.3333 20.4004 33.4211 20.2441 33.5774C20.0878 33.7337 20 33.9457 20 34.1667ZM40 34.1667C40 37.3833 37.3833 40 34.1667 40C32.7649 39.9972 31.411 39.4902 30.3522 38.5715C29.2934 37.6529 28.6005 36.384 28.4 34.9967C28.3883 34.9983 28.3783 35.005 28.365 35.005L27.5217 35.0333H27.4933C27.2784 35.0278 27.0739 34.9394 26.9227 34.7867C26.7714 34.6339 26.685 34.4286 26.6816 34.2136C26.6781 33.9987 26.7579 33.7907 26.9042 33.6332C27.0505 33.4756 27.252 33.3807 27.4667 33.3683L28.31 33.34C28.34 33.3367 28.3683 33.35 28.3967 33.3517C28.5939 31.961 29.2859 30.6881 30.3457 29.7664C31.4055 28.8446 32.7621 28.3358 34.1667 28.3333C37.3833 28.3333 40 30.95 40 34.1667ZM38.3333 34.1667C38.3333 31.87 36.4633 30 34.1667 30C31.87 30 30 31.87 30 34.1667C30 36.4633 31.87 38.3333 34.1667 38.3333C36.4633 38.3333 38.3333 36.4633 38.3333 34.1667Z" fill="white"/>
</g>
<defs>
<clipPath id="clip0_4_40">
<rect width="40" height="40" fill="white"/>
</clipPath>
</defs>
</svg>
