<svg width="40" height="40" viewBox="0 0 40 40" fill="none" xmlns="http://www.w3.org/2000/svg">
<path d="M23.48 21.8767H22.9867V16.4301H24.65C26.0083 16.4301 26.4733 17.2134 26.4733 18.0634C26.4733 18.9134 26.0067 19.6967 24.65 19.6967H23.4817L23.48 21.8767ZM23.48 19.2401H24.7133C24.8753 19.2642 25.0406 19.2509 25.1966 19.2012C25.3526 19.1514 25.4951 19.0665 25.6131 18.953C25.7311 18.8395 25.8215 18.7004 25.8773 18.5465C25.9331 18.3925 25.9529 18.2278 25.935 18.0651C25.9531 17.9023 25.9336 17.7376 25.878 17.5836C25.8224 17.4296 25.7322 17.2904 25.6143 17.1767C25.4965 17.0631 25.3541 16.9779 25.1982 16.928C25.0423 16.878 24.877 16.8644 24.715 16.8884H23.48V19.2401ZM28.2817 18.6234C27.911 18.6208 27.5427 18.6828 27.1933 18.8067V18.3701C27.5403 18.2359 27.9097 18.1692 28.2817 18.1734C29.3717 18.1734 29.655 18.6684 29.655 19.3934V21.8767H29.3717L29.2617 21.5867C28.943 21.8181 28.5604 21.945 28.1667 21.9501C28.0026 21.9755 27.8349 21.9637 27.6761 21.9154C27.5172 21.8672 27.3713 21.7837 27.2491 21.6713C27.1269 21.5589 27.0316 21.4204 26.9703 21.2661C26.909 21.1118 26.8833 20.9457 26.895 20.7801C26.895 20.1634 27.2367 19.7051 28.1883 19.6467L29.1467 19.5884V19.3851C29.1467 18.8551 28.9583 18.6234 28.2817 18.6234ZM28.1517 20.0401C27.635 20.0901 27.41 20.3601 27.41 20.7817C27.41 21.1084 27.49 21.5001 28.18 21.5001C28.5236 21.4998 28.8597 21.399 29.1467 21.2101V19.9467L28.1517 20.0401ZM31.2517 20.8617C31.1743 20.9305 31.125 21.0255 31.1133 21.1284C31.1133 21.3117 31.2017 21.3917 31.39 21.4117L32.6233 21.5584C33.3067 21.6317 33.62 21.9001 33.62 22.5317C33.62 23.4184 32.7333 23.7651 31.7317 23.7651C30.715 23.7651 30.105 23.4684 30.105 22.6701C30.1095 22.4509 30.1849 22.2392 30.3198 22.0664C30.4547 21.8937 30.6419 21.7693 30.8533 21.7117V21.7034C30.7761 21.651 30.7139 21.5792 30.673 21.4953C30.632 21.4114 30.6138 21.3182 30.62 21.2251C30.626 21.1271 30.6539 21.0317 30.7018 20.946C30.7497 20.8603 30.8163 20.7865 30.8967 20.7301C30.6974 20.6067 30.5371 20.4295 30.4342 20.219C30.3313 20.0084 30.2899 19.7731 30.315 19.5401C30.315 18.7917 30.635 18.1734 31.7317 18.1734C31.9279 18.1726 32.1234 18.1972 32.3133 18.2467H33.5467V18.5217L32.9383 18.6967C33.089 18.9508 33.162 19.2434 33.1483 19.5384C33.1483 20.2867 32.8283 20.9051 31.7317 20.9051C31.5705 20.9067 31.4097 20.8916 31.2517 20.8601V20.8617ZM31.4633 21.8417C30.9833 21.9501 30.5767 22.1751 30.5767 22.6417C30.5767 23.1784 30.9833 23.3301 31.7317 23.3301C32.4567 23.3301 33.14 23.1484 33.14 22.5301C33.14 22.1617 32.965 22.0151 32.5233 21.9634L31.4633 21.8417ZM32.675 19.5401C32.675 19.0601 32.5817 18.6167 31.7317 18.6167C30.8817 18.6167 30.7867 19.0601 30.7867 19.5401C30.7867 20.0201 30.8817 20.4617 31.7317 20.4617C32.5817 20.4617 32.675 20.0184 32.675 19.5384V19.5401ZM35.4033 18.1734C36.6367 18.1734 36.7833 19.0167 36.7833 20.0617V20.2951H34.3867C34.4167 20.9267 34.5833 21.5001 35.4033 21.5001C35.8129 21.5217 36.2222 21.4522 36.6017 21.2967V21.7317C36.2218 21.8873 35.8136 21.9617 35.4033 21.9501C34.1767 21.9501 33.8783 21.1084 33.8783 20.0617C33.8783 19.0151 34.1767 18.1734 35.4033 18.1734ZM34.3867 19.8801H36.275C36.275 19.2351 36.2383 18.6251 35.4033 18.6251C34.56 18.6251 34.4083 19.2251 34.3867 19.8801ZM38.7217 19.7934C39.7533 19.8884 40 20.2367 40 20.8317C40 21.3917 39.645 21.9501 38.54 21.9501C38.1723 21.9455 37.8074 21.8842 37.4583 21.7684V21.3334C37.8093 21.4515 38.1781 21.5079 38.5483 21.5001C39.3033 21.5001 39.5067 21.1801 39.5067 20.8384C39.5067 20.5051 39.405 20.2717 38.6867 20.2151C37.6333 20.1201 37.415 19.7484 37.415 19.2484C37.415 18.7317 37.7483 18.1734 38.7733 18.1734C39.1303 18.1651 39.4855 18.2274 39.8183 18.3567V18.7901C39.4805 18.6722 39.1244 18.6158 38.7667 18.6234C38.0467 18.6234 37.895 18.8934 37.895 19.2501C37.895 19.5667 38.025 19.7334 38.7217 19.7934ZM4.07667 18.6951H2.3C2.2779 18.6951 2.2567 18.7038 2.24107 18.7195C2.22545 18.7351 2.21667 18.7563 2.21667 18.7784V19.6484C2.21667 19.6705 2.22545 19.6917 2.24107 19.7073C2.2567 19.7229 2.2779 19.7317 2.3 19.7317H2.99333V20.8134C2.80177 20.8583 2.60487 20.8763 2.40833 20.8667C1.9 20.8667 1.19 20.6801 1.19 19.1201C1.19 17.5601 1.92833 17.3534 2.62333 17.3534C2.97119 17.3419 3.31816 17.3951 3.64667 17.5101C3.65891 17.5126 3.67157 17.5123 3.68369 17.5092C3.69581 17.5062 3.7071 17.5004 3.7167 17.4924C3.7263 17.4844 3.73398 17.4744 3.73917 17.463C3.74436 17.4516 3.74692 17.4392 3.74667 17.4267L3.94667 16.5867C3.94681 16.574 3.94385 16.5614 3.93804 16.5501C3.93223 16.5388 3.92375 16.529 3.91333 16.5217C3.44597 16.295 2.92567 16.1999 2.40833 16.2467C1.21667 16.2467 0 16.7501 0 19.1801C0 21.6101 1.395 21.9717 2.57 21.9717C3.12013 21.9843 3.66245 21.8398 4.13333 21.5551C4.14273 21.5476 4.15009 21.5379 4.15475 21.5268C4.15941 21.5157 4.16122 21.5037 4.16 21.4917V18.7784C4.16 18.7563 4.15122 18.7351 4.13559 18.7195C4.11996 18.7038 4.09877 18.6951 4.07667 18.6951ZM13.3183 16.5384C13.3183 16.5163 13.3096 16.4951 13.2939 16.4795C13.2783 16.4638 13.2571 16.4551 13.235 16.4551H12.2333C12.2112 16.4551 12.19 16.4638 12.1744 16.4795C12.1588 16.4951 12.15 16.5163 12.15 16.5384V18.4734H10.59V16.5384C10.59 16.5275 10.5878 16.5166 10.5837 16.5065C10.5795 16.4964 10.5733 16.4872 10.5656 16.4795C10.5579 16.4717 10.5487 16.4656 10.5386 16.4614C10.5284 16.4572 10.5176 16.4551 10.5067 16.4551H9.50667C9.49572 16.4551 9.48489 16.4572 9.47478 16.4614C9.46467 16.4656 9.45548 16.4717 9.44774 16.4795C9.44 16.4872 9.43386 16.4964 9.42968 16.5065C9.42549 16.5166 9.42333 16.5275 9.42333 16.5384V21.7801C9.42333 21.8022 9.43211 21.8234 9.44774 21.839C9.46337 21.8546 9.48457 21.8634 9.50667 21.8634H10.5067C10.5288 21.8634 10.55 21.8546 10.5656 21.839C10.5812 21.8234 10.59 21.8022 10.59 21.7801V19.5384H12.1517L12.1483 21.7801C12.1483 21.8022 12.1571 21.8234 12.1727 21.839C12.1884 21.8546 12.2096 21.8634 12.2317 21.8634H13.2367C13.2588 21.8634 13.28 21.8546 13.2956 21.839C13.3112 21.8234 13.32 21.8022 13.32 21.7801L13.3183 16.5384ZM6.00333 17.2251C6.00202 17.0974 5.96293 16.973 5.89101 16.8675C5.81908 16.762 5.71753 16.6801 5.59916 16.6322C5.48079 16.5844 5.3509 16.5726 5.22586 16.5984C5.10081 16.6243 4.98622 16.6865 4.89651 16.7774C4.80681 16.8683 4.74601 16.9837 4.72178 17.109C4.69755 17.2344 4.71098 17.3641 4.76037 17.4819C4.80976 17.5996 4.8929 17.7001 4.99932 17.7707C5.10573 17.8412 5.23065 17.8787 5.35833 17.8784C5.53043 17.8771 5.69499 17.8075 5.8159 17.6851C5.93682 17.5626 6.00422 17.3972 6.00333 17.2251ZM5.93333 20.6717V18.2534C5.93333 18.2424 5.93118 18.2316 5.92699 18.2215C5.9228 18.2114 5.91666 18.2022 5.90893 18.1945C5.90119 18.1867 5.892 18.1806 5.88189 18.1764C5.87178 18.1722 5.86094 18.1701 5.85 18.1701H4.85C4.82686 18.1725 4.80542 18.1834 4.78976 18.2006C4.77409 18.2178 4.76528 18.2401 4.765 18.2634V21.7301C4.765 21.8301 4.82833 21.8617 4.91 21.8617H5.81C5.91 21.8617 5.93333 21.8117 5.93333 21.7284V20.6717ZM17.2067 18.1767H16.2117C16.1896 18.1767 16.1684 18.1855 16.1527 18.2011C16.1371 18.2168 16.1283 18.238 16.1283 18.2601V20.8301C15.9465 20.9491 15.734 21.0128 15.5167 21.0134C15.1583 21.0134 15.0633 20.8517 15.0633 20.5017V18.2617C15.0633 18.2396 15.0546 18.2184 15.0389 18.2028C15.0233 18.1872 15.0021 18.1784 14.98 18.1784H13.9733C13.9624 18.1784 13.9516 18.1805 13.9414 18.1847C13.9313 18.1889 13.9221 18.1951 13.9144 18.2028C13.9067 18.2105 13.9005 18.2197 13.8963 18.2298C13.8922 18.2399 13.89 18.2508 13.89 18.2617V20.6717C13.89 21.7151 14.47 21.9701 15.27 21.9701C15.6898 21.9584 16.0987 21.8334 16.4533 21.6084C16.4619 21.6801 16.4742 21.7513 16.49 21.8217C16.4972 21.835 16.5078 21.8461 16.5207 21.854C16.5335 21.8619 16.5482 21.8663 16.5633 21.8667L17.205 21.8634C17.2271 21.8634 17.2483 21.8546 17.2639 21.839C17.2796 21.8234 17.2883 21.8022 17.2883 21.7801V18.2601C17.2883 18.238 17.2796 18.2168 17.2639 18.2011C17.2483 18.1855 17.2271 18.1767 17.205 18.1767H17.2067ZM19.9767 18.0601C19.6439 18.0575 19.3165 18.1438 19.0283 18.3101V16.5384C19.0283 16.5275 19.0262 16.5166 19.022 16.5065C19.0178 16.4964 19.0117 16.4872 19.0039 16.4795C18.9962 16.4717 18.987 16.4656 18.9769 16.4614C18.9668 16.4572 18.9559 16.4551 18.945 16.4551H17.9417C17.9307 16.4551 17.9199 16.4572 17.9098 16.4614C17.8997 16.4656 17.8905 16.4717 17.8827 16.4795C17.875 16.4872 17.8689 16.4964 17.8647 16.5065C17.8605 16.5166 17.8583 16.5275 17.8583 16.5384V21.7801C17.8583 21.8022 17.8671 21.8234 17.8827 21.839C17.8984 21.8546 17.9196 21.8634 17.9417 21.8634H18.6383C18.6535 21.8633 18.6683 21.859 18.6813 21.8511C18.6942 21.8432 18.7047 21.8319 18.7117 21.8184C18.7316 21.7396 18.7455 21.6593 18.7533 21.5784C19.0903 21.8457 19.5119 21.9834 19.9417 21.9667C20.855 21.9667 21.3783 21.5034 21.3783 19.8867C21.3783 18.2701 20.5417 18.0601 19.9767 18.0601ZM19.585 21.0117C19.3811 21.0065 19.182 20.9491 19.0067 20.8451V19.1851C19.1645 19.0948 19.3392 19.038 19.52 19.0184C19.8783 18.9867 20.2233 19.0951 20.2233 19.9484C20.2233 20.8484 20.0667 21.0251 19.585 21.0117ZM8.79333 18.1684H8.04333L8.04 17.1767C8.04 17.1384 8.02167 17.1201 7.97833 17.1201H6.95333C6.91333 17.1201 6.89333 17.1367 6.89333 17.1751V18.2001L6.34333 18.3334C6.32633 18.3387 6.3115 18.3494 6.301 18.3638C6.2905 18.3782 6.28489 18.3956 6.285 18.4134V19.0584C6.285 19.0693 6.28716 19.0802 6.29134 19.0903C6.29553 19.1004 6.30167 19.1096 6.30941 19.1173C6.31715 19.1251 6.32633 19.1312 6.33644 19.1354C6.34655 19.1396 6.35739 19.1417 6.36833 19.1417H6.89333V20.6917C6.89333 21.8451 7.7 21.9584 8.24667 21.9584C8.44854 21.9514 8.64861 21.9178 8.84167 21.8584C8.85595 21.8523 8.86806 21.8421 8.8764 21.829C8.88473 21.8159 8.88889 21.8006 8.88833 21.7851L8.89 21.0751C8.89 21.0641 8.88784 21.0533 8.88366 21.0432C8.87947 21.0331 8.87333 21.0239 8.86559 21.0161C8.85785 21.0084 8.84867 21.0023 8.83856 20.9981C8.82845 20.9939 8.81761 20.9917 8.80667 20.9917C8.76333 20.9917 8.65 21.0084 8.535 21.0084C8.16667 21.0084 8.04167 20.8384 8.04167 20.6151V19.1417H8.79333C8.81543 19.1417 8.83663 19.1329 8.85226 19.1173C8.86789 19.1017 8.87667 19.0805 8.87667 19.0584V18.2517C8.87667 18.2408 8.87451 18.2299 8.87032 18.2198C8.86614 18.2097 8.86 18.2005 8.85226 18.1928C8.84452 18.1851 8.83533 18.1789 8.82522 18.1747C8.81511 18.1705 8.80428 18.1684 8.79333 18.1684Z" fill="white"/>
</svg>
