<svg width="40" height="40" viewBox="0 0 40 40" fill="none" xmlns="http://www.w3.org/2000/svg">
<path d="M23.7167 20.0066C23.7167 20.9947 23.3243 21.9423 22.6257 22.6412C21.9272 23.34 20.9798 23.7328 19.9917 23.7333C19.0033 23.7333 18.0554 23.3406 17.3565 22.6418C16.6576 21.9429 16.265 20.995 16.265 20.0066C16.265 19.0185 16.6574 18.0709 17.3559 17.372C18.0545 16.6732 19.0019 16.2804 19.99 16.2799C20.9784 16.2799 21.9263 16.6726 22.6252 17.3715C23.324 18.0703 23.7167 19.0182 23.7167 20.0066ZM28.13 2.18994C25.8867 2.18994 22.9517 3.78994 19.9833 6.55994C17.0167 3.80494 14.08 2.22327 11.8383 2.22327C11.155 2.22327 10.5333 2.37827 9.995 2.68661C7.70333 4.00827 7.19 8.12661 8.37333 13.2949C3.3 14.8616 0 17.3666 0 20.0066C0 22.6566 3.31667 25.1683 8.405 26.7233C7.23167 31.9116 7.755 36.0366 10.0517 37.3566C10.585 37.6683 11.2017 37.8149 11.8883 37.8149C14.13 37.8149 17.0667 36.2149 20.035 33.4416C23.0017 36.1983 25.9383 37.7799 28.18 37.7799C28.8633 37.7799 29.485 37.6299 30.0233 37.3216C32.3133 36.0016 32.8283 31.8833 31.645 26.7133C36.7 25.1599 40 22.6499 40 20.0066C40 17.3566 36.6833 14.8449 31.595 13.2866C32.7683 8.10327 32.245 3.97494 29.9483 2.65327C29.4183 2.34661 28.8033 2.19161 28.13 2.18994ZM28.1217 4.00661V4.01661C28.4967 4.01661 28.7983 4.08994 29.0517 4.22827C30.1617 4.86494 30.6433 7.28661 30.2683 10.4016C30.1783 11.1683 30.0317 11.9766 29.8517 12.8016C28.2517 12.4083 26.5083 12.1066 24.6733 11.9116C23.5733 10.4033 22.4317 9.03327 21.2817 7.83327C23.935 5.36661 26.4267 4.01327 28.1233 4.00827L28.1217 4.00661ZM11.8383 4.03994C13.525 4.03994 16.0283 5.38661 18.6883 7.83994C17.545 9.03994 16.405 10.4016 15.3217 11.9099C13.4767 12.1049 11.7317 12.4066 10.1333 12.8066C9.94667 11.9899 9.80833 11.1999 9.71 10.4399C9.32667 7.32661 9.8 4.90661 10.9 4.26161C11.2167 4.11161 11.5667 4.04827 11.8383 4.03994ZM19.975 9.12327C20.7333 9.90327 21.4917 10.7766 22.2417 11.7299C21.5083 11.6966 20.7583 11.6733 20 11.6733C19.2333 11.6733 18.475 11.6899 17.7333 11.7299C18.4667 10.7766 19.225 9.90494 19.975 9.12327ZM20 13.4999C21.2333 13.4999 22.4617 13.5566 23.67 13.6549C24.3467 14.6249 25.0067 15.6599 25.6417 16.7549C26.2617 17.8216 26.825 18.9049 27.3383 19.9983C26.825 21.0899 26.2617 22.1816 25.65 23.2483C25.0167 24.3483 24.3617 25.3949 23.6833 26.3649C22.47 26.4699 21.24 26.5283 20 26.5283C18.7667 26.5283 17.5383 26.4699 16.33 26.3733C15.6533 25.4033 14.9933 24.3666 14.3583 23.2733C13.7383 22.2066 13.175 21.1233 12.6617 20.0299C13.1667 18.9349 13.7383 17.8416 14.35 16.7733C14.9833 15.6733 15.6383 14.6299 16.3167 13.6599C17.53 13.5533 18.76 13.4966 20 13.4966V13.4999ZM13.9417 13.9233C13.5417 14.5516 13.1417 15.1949 12.7683 15.8566C12.3933 16.5066 12.0433 17.1599 11.71 17.8133C11.2683 16.7199 10.8933 15.6299 10.5833 14.5683C11.65 14.3183 12.775 14.0949 13.9417 13.9233ZM26.0417 13.9233C27.2 14.0949 28.3167 14.3066 29.385 14.5683C29.085 15.6216 28.71 16.7049 28.285 17.7899C27.9517 17.1399 27.6017 16.4849 27.2183 15.8333C26.8433 15.1799 26.4433 14.5433 26.0433 13.9233H26.0417ZM31.1467 15.0483C31.9533 15.2983 32.72 15.5766 33.4383 15.8783C36.325 17.1116 38.1917 18.7249 38.1917 20.0049C38.1833 21.2849 36.3167 22.9049 33.43 24.1299C32.73 24.4299 31.9633 24.6999 31.1717 24.9516C30.705 23.3549 30.095 21.6916 29.3383 19.9849C30.0883 18.2899 30.6883 16.6349 31.1467 15.0449V15.0483ZM8.82167 15.0549C9.285 16.6549 9.89667 18.3166 10.655 20.0216C9.905 21.7166 9.30167 23.3716 8.845 24.9616C8.03833 24.7116 7.27167 24.4316 6.56167 24.1283C3.675 22.8999 1.80833 21.2849 1.80833 20.0049C1.80833 18.7249 3.675 17.1016 6.56167 15.8783C7.26167 15.5783 8.02833 15.3083 8.82167 15.0549ZM28.285 22.1883C28.7267 23.2833 29.1017 24.3749 29.4117 25.4349C28.345 25.6966 27.2183 25.9183 26.0517 26.0849C26.4517 25.4599 26.8517 24.8149 27.2267 24.1549C27.6017 23.5049 27.95 22.8416 28.285 22.1883ZM11.71 22.2216C12.0433 22.8749 12.3933 23.5266 12.7767 24.1799C13.16 24.8299 13.5517 25.4666 13.9517 26.0849C12.7933 25.9149 11.6767 25.7016 10.6083 25.4416C10.9083 24.3916 11.285 23.3049 11.7083 22.2199L11.71 22.2216ZM29.8667 27.1999C30.0533 28.0216 30.2 28.8133 30.29 29.5716C30.6733 32.6849 30.2 35.1049 29.1 35.7516C28.855 35.9016 28.5367 35.9649 28.1617 35.9649C26.475 35.9649 23.9717 34.6199 21.3117 32.1649C22.455 30.9649 23.595 29.6049 24.6783 28.0983C26.5233 27.9016 28.2683 27.5999 29.8667 27.1999ZM10.15 27.2166C11.75 27.6066 13.4933 27.9083 15.3283 28.1033C16.4283 29.6116 17.57 30.9816 18.72 32.1799C16.0617 34.6516 13.5667 36.0049 11.87 36.0049C11.5033 35.9966 11.1933 35.9216 10.9483 35.7849C9.83833 35.1516 9.35667 32.7283 9.73167 29.6133C9.82167 28.8466 9.97 28.0399 10.15 27.2166ZM17.75 28.2833C18.4833 28.3166 19.2333 28.3399 19.9917 28.3399C20.7583 28.3399 21.5167 28.3233 22.2583 28.2833C21.525 29.2366 20.7667 30.1083 20.0167 30.8916C19.2583 30.1083 18.5 29.2366 17.75 28.2833Z" fill="white"/>
</svg>
