<svg width="40" height="40" viewBox="0 0 40 40" fill="none" xmlns="http://www.w3.org/2000/svg">
<g clip-path="url(#clip0_4_32)">
<path d="M1.875 0C0.836667 0 0 0.836667 0 1.875V38.125C0 39.1633 0.836667 40 1.875 40H38.125C39.1633 40 40 39.1633 40 38.125V1.875C40 0.836667 39.1633 0 38.125 0H1.875ZM30.8133 16.25C31.8333 16.25 32.7367 16.3117 33.525 16.435C34.2685 16.5464 34.9982 16.7364 35.7017 17.0017V21.0983C35.364 20.8648 35.0052 20.6634 34.63 20.4967C34.2431 20.3226 33.8436 20.1777 33.435 20.0633C32.661 19.8477 31.8618 19.7356 31.0583 19.73C30.5583 19.73 30.1033 19.7767 29.6933 19.8733C29.3279 19.9515 28.9774 20.0877 28.655 20.2767C28.3717 20.45 28.155 20.6583 28 20.9C27.8441 21.1436 27.763 21.4275 27.7667 21.7167C27.7667 22.0433 27.855 22.3383 28.0267 22.5983C28.2 22.8583 28.4467 23.105 28.765 23.3383C29.0833 23.5717 29.47 23.7983 29.925 24.0217C30.38 24.2467 30.895 24.4783 31.4683 24.715C32.2517 25.0433 32.955 25.3933 33.5783 25.7617C34.2017 26.1317 34.7367 26.55 35.1833 27.0167C35.63 27.4817 35.97 28.0133 36.2067 28.6117C36.4433 29.21 36.5633 29.905 36.5633 30.7C36.5633 31.795 36.355 32.7167 35.9417 33.46C35.5378 34.1931 34.9583 34.8145 34.255 35.2683C33.497 35.749 32.6568 36.0857 31.7767 36.2617C30.8333 36.4617 29.8383 36.5617 28.7933 36.5617C27.7648 36.5662 26.7382 36.4747 25.7267 36.2883C24.8515 36.137 24.0028 35.8602 23.2067 35.4667V31.0833C24.713 32.3652 26.6238 33.0736 28.6017 33.0833C29.1567 33.0833 29.6417 33.0333 30.055 32.9333C30.47 32.8333 30.815 32.6933 31.0933 32.5167C31.37 32.3367 31.5767 32.1267 31.715 31.8833C31.8679 31.6 31.9374 31.2792 31.9156 30.958C31.8938 30.6368 31.7815 30.3284 31.5917 30.0683C31.344 29.7406 31.0412 29.4586 30.6967 29.235C30.2694 28.9518 29.8196 28.7043 29.3517 28.495C28.7971 28.2417 28.2375 27.9995 27.6733 27.7683C26.1433 27.13 25.0033 26.3483 24.2517 25.4267C23.5017 24.505 23.125 23.39 23.125 22.085C23.125 21.0617 23.33 20.1833 23.74 19.4483C24.15 18.7133 24.7067 18.1083 25.4133 17.6333C26.1608 17.1402 26.9906 16.7852 27.8633 16.585C28.83 16.3571 29.8202 16.2446 30.8133 16.25ZM5.625 16.5633H21.5633V20.1733H15.8433V36.25H11.315V20.1733H5.625V16.5633Z" fill="white"/>
</g>
<defs>
<clipPath id="clip0_4_32">
<rect width="40" height="40" fill="white"/>
</clipPath>
</defs>
</svg>
